<svg width="16" height="16" viewBox="0 0 16 16" fill="none" xmlns="http://www.w3.org/2000/svg">
<path fill-rule="evenodd" clip-rule="evenodd" d="M7.99998 2.33334C4.87037 2.33334 2.33331 4.87039 2.33331 8C2.33331 11.1296 4.87037 13.6667 7.99998 13.6667C11.1296 13.6667 13.6666 11.1296 13.6666 8C13.6666 4.87039 11.1296 2.33334 7.99998 2.33334ZM0.333313 8C0.333313 3.76582 3.7658 0.333336 7.99998 0.333336C12.2342 0.333336 15.6666 3.76582 15.6666 8C15.6666 12.2342 12.2342 15.6667 7.99998 15.6667C3.7658 15.6667 0.333313 12.2342 0.333313 8ZM7.99998 4.33334C8.55226 4.33334 8.99998 4.78105 8.99998 5.33334V7H10.6666C11.2189 7 11.6666 7.44772 11.6666 8C11.6666 8.55229 11.2189 9 10.6666 9H8.99998V10.6667C8.99998 11.219 8.55226 11.6667 7.99998 11.6667C7.44769 11.6667 6.99998 11.219 6.99998 10.6667V9H5.33331C4.78103 9 4.33331 8.55229 4.33331 8C4.33331 7.44772 4.78103 7 5.33331 7H6.99998V5.33334C6.99998 4.78105 7.44769 4.33334 7.99998 4.33334Z" fill="#1F8EFA"/>
</svg>
