<svg width="20" height="21" viewBox="0 0 20 21" fill="none" xmlns="http://www.w3.org/2000/svg">
<path fill-rule="evenodd" clip-rule="evenodd" d="M9.99996 2.66867C5.94987 2.66867 2.66663 5.95192 2.66663 10.002C2.66663 14.0521 5.94987 17.3353 9.99996 17.3353C14.05 17.3353 17.3333 14.0521 17.3333 10.002C17.3333 5.95192 14.05 2.66867 9.99996 2.66867ZM0.666626 10.002C0.666626 4.84735 4.8453 0.668671 9.99996 0.668671C15.1546 0.668671 19.3333 4.84735 19.3333 10.002C19.3333 15.1567 15.1546 19.3353 9.99996 19.3353C4.8453 19.3353 0.666626 15.1567 0.666626 10.002ZM13.2071 6.7949C13.5976 7.18542 13.5976 7.81859 13.2071 8.20911L11.4142 10.002L13.2071 11.7949C13.5976 12.1854 13.5976 12.8186 13.2071 13.2091C12.8165 13.5996 12.1834 13.5996 11.7929 13.2091L9.99996 11.4162L8.20707 13.2091C7.81654 13.5996 7.18338 13.5996 6.79285 13.2091C6.40233 12.8186 6.40233 12.1854 6.79285 11.7949L8.58575 10.002L6.79285 8.20911C6.40233 7.81859 6.40233 7.18542 6.79285 6.7949C7.18338 6.40437 7.81654 6.40437 8.20707 6.7949L9.99996 8.58779L11.7929 6.7949C12.1834 6.40437 12.8165 6.40437 13.2071 6.7949Z" fill="#516173"/>
</svg>
