<svg width="32" height="32" fill="none" xmlns="http://www.w3.org/2000/svg"><path fill-rule="evenodd" clip-rule="evenodd" d="M16 1.667a9 9 0 0 0-9 9c0 4.519-.967 7.351-1.878 9.02-.457.838-.905 1.394-1.223 1.73a4.354 4.354 0 0 1-.451.415l-.012.01.001-.002.004-.002.002-.002.003.003L4 23.666h24l.553-1.829.003-.003.001.001.002.002.003.002.002.001-.012-.009a4.357 4.357 0 0 1-.451-.416c-.318-.335-.767-.89-1.223-1.728-.911-1.67-1.878-4.502-1.878-9.021a9 9 0 0 0-9-9Zm9.747 20H6.253c.205-.298.415-.638.625-1.022C7.967 18.65 9 15.481 9 10.667a7 7 0 1 1 14 0c0 4.814 1.033 7.982 2.122 9.978.21.384.42.724.625 1.022Zm-11.189 5.831a1 1 0 1 0-1.73 1.004 3.668 3.668 0 0 0 6.344 0 1 1 0 0 0-1.73-1.004 1.667 1.667 0 0 1-2.884 0Z" fill="#fff"/></svg>