<svg width="32" height="32" fill="none" xmlns="http://www.w3.org/2000/svg"><path fill-rule="evenodd" clip-rule="evenodd" d="M7.017 4.35a2.333 2.333 0 0 1 1.65-.683h17v18.057a.997.997 0 0 0-.334-.057H8.667c-.834 0-1.642.24-2.334.681V6c0-.619.246-1.212.684-1.65ZM6.333 26a2.333 2.333 0 0 0 2.334 2.333H24.39a1 1 0 0 1-.058-.334v-4a1 1 0 0 1 .057-.332H8.667A2.333 2.333 0 0 0 6.333 26Zm-2 0a4.333 4.333 0 0 0 4.334 4.333h18a1 1 0 0 0 .707-1.706l-1.04-1.042v-3.172l1.04-1.04a1 1 0 0 0 .293-.708V2.667a1 1 0 0 0-1-1h-18A4.333 4.333 0 0 0 4.333 6v20Z" fill="#fff"/></svg>