<svg width="24" height="24" fill="none" xmlns="http://www.w3.org/2000/svg"><path fill-rule="evenodd" clip-rule="evenodd" d="M17 2a1 1 0 1 0-2 0v.001H9V2a1 1 0 0 0-2 0v.001H5a3 3 0 0 0-3 3v15a3 3 0 0 0 3 3h14a3 3 0 0 0 3-3v-15a3 3 0 0 0-3-3h-2V2ZM8 5a1 1 0 0 1-1-.999H5a1 1 0 0 0-1 1v2h16v-2a1 1 0 0 0-1-1h-2a1 1 0 0 1-2 0H9A1 1 0 0 1 8 5Zm12 4.001H4v11a1 1 0 0 0 1 1h14a1 1 0 0 0 1-1v-11ZM6 16a1 1 0 0 1 1-1h3a1 1 0 0 1 1 1v2a1 1 0 0 1-1 1H7a1 1 0 0 1-1-1v-2Zm7-5a1 1 0 0 0-1 1v2a1 1 0 0 0 1 1h4a1 1 0 0 0 1-1v-2a1 1 0 0 0-1-1h-4Z" fill="#354052"/></svg>