<svg width="16" height="17" fill="none" xmlns="http://www.w3.org/2000/svg"><g filter="url(#a)"><path fill-rule="evenodd" clip-rule="evenodd" d="M3.098 3.1a.333.333 0 0 1 .235-.098h7.334a1 1 0 1 0 0-2H3.333A2.333 2.333 0 0 0 1 3.335v9.333a2.333 2.333 0 0 0 2.333 2.334h9.334A2.333 2.333 0 0 0 15 12.668V8.002a1 1 0 1 0-2 0v4.666a.333.333 0 0 1-.333.334H3.333A.333.333 0 0 1 3 12.668V3.335c0-.088.035-.173.098-.236Zm12.276.275a1 1 0 0 0-1.414-1.414L8 7.921 6.707 6.628a1 1 0 1 0-1.414 1.414l2 2a1 1 0 0 0 1.414 0l6.667-6.667Z" fill="#fff"/></g><defs><filter id="a" x="0" y=".002" width="16" height="17" filterUnits="userSpaceOnUse" color-interpolation-filters="sRGB"><feFlood flood-opacity="0" result="BackgroundImageFix"/><feColorMatrix in="SourceAlpha" values="0 0 0 0 0 0 0 0 0 0 0 0 0 0 0 0 0 0 127 0" result="hardAlpha"/><feOffset dy="1"/><feColorMatrix values="0 0 0 0 0.109804 0 0 0 0 0.109804 0 0 0 0 0.109804 0 0 0 0.1 0"/><feBlend in2="BackgroundImageFix" result="effect1_dropShadow_103_122468"/><feBlend in="SourceGraphic" in2="effect1_dropShadow_103_122468" result="shape"/></filter></defs></svg>