<svg width="25" height="25" fill="none" xmlns="http://www.w3.org/2000/svg"><path fill-rule="evenodd" clip-rule="evenodd" d="M9.082.049c4.09-.417 8.026 2.109 9.396 5.953h.523c2.81.003 5.292 2.023 5.866 4.774.575 2.75-.892 5.595-3.466 6.722a1 1 0 1 1-.802-1.832c1.707-.748 2.692-2.657 2.31-4.482-.38-1.824-2.046-3.18-3.91-3.182H17.74a1 1 0 0 1-.968-.75c-.852-3.3-4.116-5.557-7.487-5.214-3.37.343-6.113 3.212-6.282 6.616a7.062 7.062 0 0 0 2.621 5.817 1 1 0 1 1-1.248 1.562 9.061 9.061 0 0 1-3.37-7.478C1.223 4.16 4.731.49 9.081.049ZM9 15.002a1 1 0 1 0 0 2h.01a1 1 0 1 0 0-2H9Zm-1 5a1 1 0 0 1 1-1h.01a1 1 0 1 1 0 2H9a1 1 0 0 1-1-1Zm5-3a1 1 0 1 0 0 2h.01a1 1 0 1 0 0-2H13Zm-1 5a1 1 0 0 1 1-1h.01a1 1 0 1 1 0 2H13a1 1 0 0 1-1-1Zm1-9a1 1 0 0 0 0 2h.01a1 1 0 1 0 0-2H13Zm3 3a1 1 0 0 1 1-1h.01a1 1 0 1 1 0 2H17a1 1 0 0 1-1-1Zm1 3a1 1 0 1 0 0 2h.01a1 1 0 1 0 0-2H17Z" fill="#0085F0"/></svg>