<svg width="32" height="32" fill="none" xmlns="http://www.w3.org/2000/svg"><path fill-rule="evenodd" clip-rule="evenodd" d="M6.667 1.667A3.667 3.667 0 0 0 3 5.333v21.334a3.666 3.666 0 0 0 3.667 3.666H20a1 1 0 1 0 0-2H6.667A1.667 1.667 0 0 1 5 26.667V5.333a1.667 1.667 0 0 1 1.667-1.666h16c.92 0 1.666.746 1.666 1.666v.471a3.667 3.667 0 0 0-2.666 3.528v14.222a1 1 0 0 0 .142.515l2.667 4.444a1 1 0 0 0 1.715 0l2.667-4.444a1 1 0 0 0 .142-.515V9.332a3.667 3.667 0 0 0-2.667-3.528v-.47a3.667 3.667 0 0 0-3.666-3.667h-16Zm18.626 5.999a1.004 1.004 0 0 0 .08 0A1.666 1.666 0 0 1 27 9.332v13.945l-1.667 2.778-1.666-2.778V9.332a1.667 1.667 0 0 1 1.626-1.666Zm-16.96 11a1 1 0 0 1 1-1h8a1 1 0 1 1 0 2h-8a1 1 0 0 1-1-1Zm1-6.334a1 1 0 1 0 0 2H12a1 1 0 1 0 0-2H9.333Zm-1-4.333a1 1 0 0 1 1-1h8a1 1 0 1 1 0 2h-8a1 1 0 0 1-1-1Zm1 15.001a1 1 0 1 0 0 2h5.334a1 1 0 1 0 0-2H9.333Z" fill="#3A9EFF"/></svg>