<svg width="32" height="32" fill="none" xmlns="http://www.w3.org/2000/svg"><path d="M6 12c1.1 0 2 .9 2 2s-.9 2-2 2-2-.9-2-2 .9-2 2-2Zm0-2c-2.2 0-4 1.8-4 4s1.8 4 4 4 4-1.8 4-4-1.8-4-4-4Zm10 8c1.1 0 2 .9 2 2s-.9 2-2 2-2-.9-2-2 .9-2 2-2Zm0-2c-2.2 0-4 1.8-4 4s1.8 4 4 4 4-1.8 4-4-1.8-4-4-4Zm10-6c1.1 0 2 .9 2 2s-.9 2-2 2-2-.9-2-2 .9-2 2-2Zm0-2c-2.2 0-4 1.8-4 4s1.8 4 4 4 4-1.8 4-4-1.8-4-4-4ZM5 30v-8c0-.6.4-1 1-1s1 .4 1 1v8c0 .6-.4 1-1 1s-1-.4-1-1Zm10-17V3c0-.6.4-1 1-1s1 .4 1 1v10c0 .6-.4 1-1 1s-1-.4-1-1Zm10 16V19c0-.6.4-1 1-1s1 .4 1 1v10c0 .6-.4 1-1 1s-1-.4-1-1Zm0-24V3c0-.6.4-1 1-1s1 .4 1 1v2c0 .6-.4 1-1 1s-1-.4-1-1ZM5 7V3c0-.6.4-1 1-1s1 .4 1 1v4c0 .6-.4 1-1 1s-1-.4-1-1Zm10 22v-2c0-.6.4-1 1-1s1 .4 1 1v2c0 .6-.4 1-1 1s-1-.4-1-1Z" fill="#fff"/></svg>