<svg width="24" height="24" fill="none" xmlns="http://www.w3.org/2000/svg"><path fill-rule="evenodd" clip-rule="evenodd" d="M12 1.999c-5.523 0-10 4.477-10 10s4.477 10 10 10 10-4.477 10-10-4.477-10-10-10Zm-12 10c0-6.627 5.373-12 12-12s12 5.373 12 12-5.373 12-12 12-12-5.373-12-12Zm12.407-4.956C10.854 6.77 9.444 7.62 8.94 9.01a1 1 0 0 1-1.88-.681c.836-2.309 3.188-3.695 5.691-3.258 1.151.202 2.229.667 3.022 1.514.806.861 1.227 2.018 1.227 3.417 0 1.877-1.433 3.137-2.515 3.837a10.761 10.761 0 0 1-2.23 1.09l-.043.015-.013.004-.005.002h-.002l-.296-.911.295.911a1 1 0 0 1-.617-1.902l.004-.001.025-.009a8.466 8.466 0 0 0 .527-.207 8.763 8.763 0 0 0 1.268-.67C14.375 11.528 15 10.79 15 10.002c0-.98-.285-1.62-.687-2.05-.415-.443-1.048-.76-1.906-.91ZM12 17a1 1 0 1 0 0 2h.01a1 1 0 1 0 0-2H12Z" fill="#1F8EFA"/></svg>