<svg width="32" height="33" fill="none" xmlns="http://www.w3.org/2000/svg"><path fill-rule="evenodd" clip-rule="evenodd" d="M30.209 23.365A15.93 15.93 0 0 0 32 16.002c0-3.002-.826-5.81-2.264-8.21l-.065.225c-.317 1.055-.823 2.226-1.65 3.155 1.052 1.703 2.295 4.389 2.295 8.274 0 .547-.265 1.057-.707 1.372.27.748.481 1.584.6 2.547Zm-2.314 3.338a1.678 1.678 0 0 1-.198-.114l-.897-.598c-.417 1.348-1.3 2.647-2.632 3.771a16.073 16.073 0 0 0 3.727-3.06Zm-4.678 3.582a1.684 1.684 0 0 1-2.011-1.652c0-.27-.01-.53-.026-.78l-.042.057c-.929 1.259-2.554 2.407-5.138 2.407s-4.21-1.148-5.138-2.407a5.315 5.315 0 0 1-.042-.058c-.017.25-.026.51-.026.781a1.684 1.684 0 0 1-2.011 1.652A15.932 15.932 0 0 0 16 32.001c2.597 0 5.049-.618 7.217-1.716Zm-15.385-.523C6.5 28.638 5.617 27.34 5.2 25.992l-.897.597c-.064.043-.13.08-.198.114a16.074 16.074 0 0 0 3.727 3.06Zm-6.04-6.397A15.93 15.93 0 0 1 0 16.002c0-3.002.826-5.81 2.264-8.21l.065.225c.317 1.055.823 2.226 1.65 3.155-1.052 1.703-2.295 4.389-2.295 8.274 0 .547.265 1.057.707 1.372-.27.748-.481 1.584-.6 2.547Zm5.45-20.756 3.558.896.055-.014c1.512-.392 3.328-.464 5.145.3 1.817-.764 3.633-.692 5.145-.3l.055.014 3.558-.896A15.925 15.925 0 0 0 16 .002c-3.233 0-6.242.958-8.758 2.607Z" fill="#1F8EFA"/><path d="M3.11 3.038a.421.421 0 0 1 .361-.076l7.35 1.85c.115-.034.232-.068.35-.098 1.457-.378 3.167-.399 4.829.473 1.662-.872 3.372-.85 4.828-.473.119.03.236.064.352.099l7.349-1.851a.421.421 0 0 1 .524.408c0 1.176-.147 2.798-.592 4.284-.391 1.303-1.037 2.581-2.093 3.309 1.026 1.467 2.685 4.154 2.685 8.484a.42.42 0 0 1-.61.376l-.928-.464c.843 1.422 1.538 3.117 1.538 5.83a.42.42 0 0 1-.655.35L25.8 23.806c.139 1.691-.667 3.57-2.647 5.155a.421.421 0 0 1-.684-.329c0-1.686-.32-3.047-.713-4.084a3.276 3.276 0 0 1-.828.887 4.932 4.932 0 0 1-.807 1.724c-.708.961-1.968 1.894-4.121 1.894-2.153 0-3.413-.933-4.121-1.893a4.934 4.934 0 0 1-.807-1.725 3.284 3.284 0 0 1-.828-.887c-.394 1.037-.713 2.398-.713 4.084a.421.421 0 0 1-.684.329c-1.98-1.584-2.786-3.464-2.647-5.155l-2.598 1.731a.42.42 0 0 1-.655-.35c0-2.712.695-4.407 1.538-5.83l-.928.465a.421.421 0 0 1-.61-.377c0-4.33 1.659-7.016 2.685-8.483-1.056-.728-1.702-2.006-2.093-3.31-.445-1.485-.592-3.107-.592-4.283 0-.13.06-.252.163-.332Z" fill="url(#a)"/><path d="M10.832 5.25 3.368 3.37c0 2.297.575 6.316 2.871 7.464-.957 1.34-2.87 4.02-2.87 8.613l2.296-1.149c-1.148 1.723-2.297 3.445-2.297 6.89l3.445-2.296c-.574 1.722 0 3.904 2.297 5.741 0-2.297.574-4.02 1.148-5.167.148.74.601 1.327 1.192 1.722M16 22.892s0-1.838-2.297-2.297V17.15l-3.445-2.297M16 22.892s0-1.838 2.297-2.297V17.15l3.445-2.297M16 22.892c0 2.983 2.847 3.435 4.55 2.296M16 22.892c0 2.983-2.848 3.435-4.55 2.296M7.962 6.815C9.302 5.667 12.785 3.829 16 5.667c3.215-1.838 6.699 0 8.038 1.148m-2.87-1.565 7.463-1.88c0 2.297-.573 6.316-2.87 7.464.957 1.34 2.87 4.02 2.87 8.613l-2.296-1.149c1.148 1.723 2.296 3.445 2.297 6.89l-3.445-2.296c.574 1.722 0 3.904-2.297 5.741 0-2.297-.574-4.02-1.148-5.167-.148.74-.601 1.327-1.192 1.722m0 0s-.53 3.445-4.55 3.445-4.55-3.445-4.55-3.445m7.995-14.327A9.855 9.855 0 0 0 16 10.26c-1.48 0-2.654.305-3.445.6" stroke="#1F8EFA" stroke-linecap="round" stroke-linejoin="round"/><defs><linearGradient id="a" x1="16" y1="2.949" x2="16" y2="29.054" gradientUnits="userSpaceOnUse"><stop stop-color="#EFF3F6"/><stop offset="1" stop-color="#DFE3E9"/></linearGradient></defs></svg>