<svg width="24" height="24" fill="none" xmlns="http://www.w3.org/2000/svg"><path fill-rule="evenodd" clip-rule="evenodd" d="M15.838 3.546c-.92-.375-1.957-.55-3.28-.546-3.227.009-5.654 1.532-7.184 4.007a8.445 8.445 0 0 0-1.263 4.438v.002a8.31 8.31 0 0 0 .893 3.769 1 1 0 0 1 .056.767l-1.48 4.436 4.436-1.479a1 1 0 0 1 .767.056c1.178.595 2.244.893 3.772.893.948 0 1.662-.083 2.32-.27.66-.188 1.31-.494 2.117-.992.807-.5 1.371-.945 1.833-1.451.462-.506.855-1.108 1.28-1.957.688-1.376.89-2.236.894-3.777.003-1.323-.172-2.36-.547-3.28-.374-.918-.974-1.778-1.905-2.71-.932-.931-1.792-1.531-2.71-1.906Zm.755-1.852c1.225.5 2.301 1.277 3.369 2.344 1.067 1.068 1.843 2.144 2.343 3.369.5 1.224.698 2.535.695 4.04-.004 1.848-.278 3.013-1.106 4.667-.477.954-.967 1.727-1.591 2.41-.625.684-1.35 1.242-2.258 1.803-.907.561-1.73.962-2.62 1.215-.892.254-1.803.347-2.87.347-1.696 0-2.986-.316-4.292-.923L2.316 22.95a1 1 0 0 1-1.265-1.265l1.984-5.95a10.311 10.311 0 0 1-.924-4.291 10.44 10.44 0 0 1 1.562-5.488C5.546 2.925 8.597 1.01 12.553 1c1.505-.004 2.816.195 4.04.694Z" fill="#7F8FA4"/></svg>