<svg width="20" height="22" fill="none" xmlns="http://www.w3.org/2000/svg"><path fill-rule="evenodd" clip-rule="evenodd" d="M18.163 13.356a8.5 8.5 0 0 0-5.33-10.375 1 1 0 1 0-.667 1.886 6.5 6.5 0 0 1 2.405 10.747l-1.904 2.027v-2.475a1 1 0 1 0-2 0v5a1 1 0 0 0 1 1h5a1 1 0 0 0 0-2h-2.689l2.04-2.171a8.5 8.5 0 0 0 2.145-3.639Zm-9.83-5.523a1 1 0 0 0 1-1v-5a1 1 0 0 0-1.004-1H3.333a1 1 0 0 0 0 2H6.02l-2.038 2.17a8.5 8.5 0 0 0 3.184 14.014 1 1 0 0 0 .668-1.886A6.5 6.5 0 0 1 5.429 6.384l1.904-2.028v2.477a1 1 0 0 0 1 1Z" fill="#516173"/></svg>