<svg width="16" height="18" fill="none" xmlns="http://www.w3.org/2000/svg"><path fill-rule="evenodd" clip-rule="evenodd" d="M14.723 10.94a7 7 0 0 0-4.39-8.545 1 1 0 0 0-.667 1.885 5 5 0 0 1 1.845 8.273l-1.178 1.253v-1.475a1 1 0 1 0-2 0v4a1 1 0 0 0 1 1h4a1 1 0 1 0 0-2h-1.688l1.313-1.397a7 7 0 0 0 1.765-2.995ZM6.667 6.663a1 1 0 0 0 1-1v-4a1 1 0 0 0-1.004-1H2.667a1 1 0 1 0 0 2h1.687L3.041 4.062A7 7 0 0 0 5.666 15.6a1 1 0 0 0 .668-1.885 5 5 0 0 1-1.845-8.273l1.178-1.254v1.476a1 1 0 0 0 1 1Z" fill="#1F8EFA"/></svg>