<svg width="18" height="18" fill="none" xmlns="http://www.w3.org/2000/svg"><path fill-rule="evenodd" clip-rule="evenodd" d="M11.294 2.503c-.549-2.45-4.04-2.45-4.588 0l.975.219-.975-.219-.03.134a.351.351 0 0 1-.531.22l-.536.844.536-.844-.116-.074C3.909 1.44 1.44 3.908 2.784 6.028l.074.116.753-.478-.753.478a.351.351 0 0 1-.22.53l-.134.03c-2.45.55-2.45 4.04 0 4.59l.134.03.213-.951-.213.95c.237.054.35.326.22.532l-.074.115C1.44 14.09 3.91 16.56 6.03 15.215l-.497-.784.497.784.116-.073a.351.351 0 0 1 .53.22l.03.133.951-.212-.95.213c.548 2.449 4.04 2.449 4.588 0l.03-.134-.976-.219.976.219a.351.351 0 0 1 .531-.22l.116.073c2.12 1.344 4.589-1.124 3.245-3.245l-.074-.115-.756.479.756-.48a.351.351 0 0 1 .22-.53l.134-.03-.219-.976.22.976c2.449-.55 2.449-4.04 0-4.59l-.135-.03a.351.351 0 0 1-.22-.53l.074-.116-.845-.535.845.535c1.344-2.12-1.125-4.588-3.245-3.245l-.116.074.374.59-.374-.59a.351.351 0 0 1-.53-.22l-.03-.134-.976.219.975-.219Zm-2.637.437a.332.332 0 0 1 .12-.207A.376.376 0 0 1 9 2.666c.092 0 .17.028.222.067.044.033.094.088.12.207l.03.134a2.351 2.351 0 0 0 3.554 1.472l.116-.073c.103-.066.178-.07.232-.062.064.01.14.045.204.11.065.065.1.14.11.205.008.053.004.128-.061.231l-.074.116.823.522-.823-.522a2.351 2.351 0 0 0 1.472 3.554l.134.03c.119.026.175.077.207.12.039.052.067.13.067.222s-.028.17-.067.223c-.032.043-.088.093-.207.12l-.134.03.186.832-.186-.832a2.351 2.351 0 0 0-1.472 3.553l.074.116.844-.535-.844.535c.065.103.069.178.06.232a.376.376 0 0 1-.109.205.376.376 0 0 1-.204.11.334.334 0 0 1-.232-.062l-.116-.073a2.351 2.351 0 0 0-3.553 1.471l-.03.134.976.219-.976-.219c-.027.12-.077.175-.12.207a.376.376 0 0 1-.223.068.376.376 0 0 1-.222-.068c-.044-.032-.094-.088-.12-.207l-.03-.134a2.351 2.351 0 0 0-3.554-1.471l-.116.073c-.103.065-.178.07-.232.061a.376.376 0 0 1-.204-.11.376.376 0 0 1-.11-.204c-.008-.054-.004-.129.061-.232l.074-.116a2.351 2.351 0 0 0-1.472-3.553l-.134-.03c-.119-.027-.175-.077-.207-.12a.376.376 0 0 1-.067-.223c0-.092.028-.17.067-.222.032-.043.088-.094.207-.12l.134-.03a2.351 2.351 0 0 0 1.472-3.554l-.074-.116c-.065-.103-.069-.178-.061-.231a.376.376 0 0 1 .11-.205.38.38 0 0 1 .204-.11c.054-.008.13-.004.232.062l.535-.845-.535.845.116.073a2.351 2.351 0 0 0 3.553-1.472l.03-.134ZM8 9a1 1 0 1 1 2 0 1 1 0 0 1-2 0Zm1-3a3 3 0 1 0 0 6 3 3 0 0 0 0-6Z" fill="#7F8FA4"/></svg>