<svg width="24" height="24" fill="none" xmlns="http://www.w3.org/2000/svg"><path fill-rule="evenodd" clip-rule="evenodd" d="M22.64 2.231a1 1 0 0 1 .336.986l-4 18a1 1 0 0 1-1.6.564l-4.302-3.441-3.367 3.367a1 1 0 0 1-1.673-.45l-1.871-7.015-4.534-1.814a1 1 0 0 1-.02-1.848l20-8.5a1 1 0 0 1 1.03.151ZM8.172 14.015l.839 3.145.524-1.923a1 1 0 0 1 .234-.42l2.993-3.207-4.59 2.405Zm2.784 3.615 1.337-1.337a1 1 0 0 1 1.332-.074l3.747 2.998 3.23-14.536-15.98 6.791 2.322.928 10.092-5.286a1 1 0 0 1 1.195 1.568l-6.831 7.32-.444 1.628Z" fill="#fff"/></svg>