<svg width="32" height="32" fill="none" xmlns="http://www.w3.org/2000/svg"><path fill-rule="evenodd" clip-rule="evenodd" d="M13.55 3.665c-.27 0-.55.237-.55.608 0 .244.105.464.632.714.505.24 1.144.378 1.816.523l.21.046c.218.047.448.046.672-.005l.308-.07c.644-.143 1.246-.278 1.732-.507.53-.25.63-.466.63-.701 0-.37-.28-.608-.55-.608h-4.9ZM11 4.273c0-1.405 1.107-2.608 2.55-2.608h4.9c1.443 0 2.55 1.203 2.55 2.608 0 1.36-.93 2.112-1.777 2.51a7.208 7.208 0 0 1-1.126.404 11.62 11.62 0 0 1 5.416 2.552l2.53-2.524-1.172-1.178a1 1 0 1 1 1.417-1.41l1.877 1.885 1.877 1.886a1 1 0 1 1-1.417 1.41l-1.171-1.175-2.527 2.52a11.62 11.62 0 0 1 2.74 7.512c0 6.444-5.224 11.667-11.667 11.667S4.333 25.109 4.333 18.665c0-5.717 4.112-10.473 9.54-11.473a6.986 6.986 0 0 1-1.1-.398C11.925 6.39 11 5.63 11 4.273ZM6.333 18.665C6.333 13.327 10.661 9 16 9a9.667 9.667 0 1 1 0 19.333 9.667 9.667 0 0 1-9.667-9.667ZM16 14.332a4.333 4.333 0 0 1 3.09 7.372 1 1 0 1 0 1.425 1.403A6.333 6.333 0 0 0 16 12.332v2Z" fill="#fff"/></svg>