<svg width="24" height="24" fill="none" xmlns="http://www.w3.org/2000/svg"><path fill-rule="evenodd" clip-rule="evenodd" d="M8.084 6.553c0-.806.665-1.504 1.558-1.504h3.446c.408 0 .931.116 1.289.595.3.404.337.886.337 1.21v3.17c.553-.71 1.042-1.532 1.418-2.244a21.04 21.04 0 0 0 .704-1.469l.008-.019.002-.003.003-.01.004-.008c.112-.258.3-.579.634-.832.348-.262.77-.39 1.237-.39h2.193c.457 0 1.073.114 1.451.656.352.502.276 1.061.18 1.4-.11.469-.389 1.04-.669 1.555-.305.561-.68 1.173-1.037 1.733a56.763 56.763 0 0 1-1.327 1.98c.026.03.057.063.094.1.1.104.222.223.364.363l.006.005.005.006c.275.268.622.609.91.947.474.534.908 1.046 1.253 1.513.334.451.643.937.793 1.407l.004.013.004.012c.14.483.162 1.118-.28 1.63-.41.476-1 .581-1.439.581h-2.192c-.357 0-.69-.075-1.008-.242a3.065 3.065 0 0 1-.74-.571 16.1 16.1 0 0 1-.525-.567l-.126-.14a24.259 24.259 0 0 0-.868-.92c-.48-.46-.822-.734-1.057-.897v1.485c0 .356-.053 1.023-.703 1.46-.492.33-1.165.393-1.862.393-2.72 0-5.55-1.632-7.504-4.435-1.401-1.964-2.302-3.7-2.857-5.039a14.444 14.444 0 0 1-.593-1.7C1.077 7.35 1 6.955 1 6.67c0-.265.047-.735.42-1.123.375-.392.884-.496 1.332-.496h2.192c.433 0 .904.099 1.3.463.343.317.513.737.626 1.063v.001c.512 1.491 1.199 2.883 1.835 3.888.086.136.17.262.25.38V8.72c-.032-.514-.17-.727-.272-.866a3.914 3.914 0 0 0-.12-.154l-.003-.003-.003-.004a3.79 3.79 0 0 1-.17-.224 1.586 1.586 0 0 1-.303-.916Zm.854 5.67Zm.841-.423.01.006-.01-.005Zm8.035-.484.001-.002.005-.008.022-.03a30.885 30.885 0 0 0 .384-.553c.25-.367.587-.868.931-1.407.345-.54.692-1.108.965-1.612.142-.26.25-.48.33-.655h-1.756a.401.401 0 0 0-.005.01l-.011.027a14.426 14.426 0 0 1-.199.45 23.03 23.03 0 0 1-.581 1.18c-.491.928-1.21 2.131-2.08 3.101l-.017.02-.018.018c-.455.458-.972.97-1.73.97-1.002 0-1.341-.984-1.341-1.627v-4.15h-2.177c.21.386.378.888.416 1.589l.002.027v3.255c0 .344-.018.796-.223 1.167-.13.232-.326.43-.591.55a1.43 1.43 0 0 1-.593.119c-.378 0-.685-.163-.875-.288a3.415 3.415 0 0 1-.577-.497c-.353-.37-.722-.868-1.081-1.435-.722-1.141-1.476-2.675-2.037-4.308a2.467 2.467 0 0 0-.067-.177H3.07c.015.061.032.129.052.202.1.366.264.86.512 1.46.497 1.198 1.325 2.804 2.64 4.647l.007.01c1.67 2.396 3.94 3.582 5.866 3.582.252 0 .434-.012.565-.028v-1.791c0-.183.009-.381.046-.572.037-.192.114-.44.297-.666.404-.501.991-.514 1.231-.514.748 0 1.559.427 2.877 1.697l.006.006.007.007a26.046 26.046 0 0 1 1.09 1.161c.183.202.316.35.439.473.148.15.22.196.25.213h.003c.009.006.022.013.078.013h1.811a6.294 6.294 0 0 0-.31-.455 20.627 20.627 0 0 0-1.146-1.38l-.008-.01-.008-.008c-.22-.26-.505-.542-.797-.827l-.054-.053c-.234-.23-.526-.515-.696-.746-.219-.285-.446-.68-.405-1.186.032-.404.241-.736.338-.89l.017-.028.017-.026.018-.025ZM3 6.656Zm-.33.398ZM13.1 7.05h-.002Zm1.617 4.198v-.003Zm-2.012-4.54v.001Z" fill="#fff"/></svg>