<svg width="24" height="24" fill="none" xmlns="http://www.w3.org/2000/svg"><path fill-rule="evenodd" clip-rule="evenodd" d="M12 4V3h-.08a96.464 96.464 0 0 0-1.033.007c-.676.007-1.596.022-2.572.05-.974.03-2.011.074-2.918.14-.88.064-1.722.154-2.255.297l-.014.004a3.584 3.584 0 0 0-1.684 1.005 3.584 3.584 0 0 0-.968 1.78A30 30 0 0 0 0 11.749a30 30 0 0 0 .476 5.508 3.582 3.582 0 0 0 .999 1.748 3.582 3.582 0 0 0 1.661.96l.006.001c.533.143 1.375.233 2.255.297.907.066 1.944.11 2.918.14a138.662 138.662 0 0 0 3.605.057H12v-1 1h.08a117.506 117.506 0 0 0 1.033-.007c.676-.008 1.596-.022 2.572-.05a70.541 70.541 0 0 0 2.918-.14c.88-.064 1.722-.154 2.255-.297l.014-.004a3.585 3.585 0 0 0 1.684-1.005 3.584 3.584 0 0 0 .968-1.78c.323-1.79.482-3.606.476-5.426a29.997 29.997 0 0 0-.49-5.574 3.584 3.584 0 0 0-.954-1.714 3.584 3.584 0 0 0-1.719-1.014c-.526-.129-1.36-.211-2.24-.27-.905-.06-1.941-.1-2.915-.126A151.104 151.104 0 0 0 12.08 3H12v1Zm0 0v1h.295a146.465 146.465 0 0 1 3.333.052c.961.026 1.968.065 2.836.123.88.059 1.542.132 1.882.212.305.089.52.206.775.469.252.26.362.475.441.777a28 28 0 0 1 .438 5.11v.01a28.002 28.002 0 0 1-.438 5.035c-.079.301-.19.517-.441.776a1.591 1.591 0 0 1-.786.472c-.329.086-.989.168-1.877.233-.867.063-1.872.105-2.833.134a136.735 136.735 0 0 1-3.55.057h-.37a140.377 140.377 0 0 1-3.33-.057 68.467 68.467 0 0 1-2.833-.134c-.892-.066-1.554-.147-1.881-.234a1.593 1.593 0 0 1-.78-.451 1.579 1.579 0 0 1-.446-.733A28 28 0 0 1 2 11.756v-.01a28 28 0 0 1 .438-5.074c.079-.301.19-.517.441-.776.258-.266.475-.383.786-.472.329-.086.989-.168 1.877-.233a68.551 68.551 0 0 1 2.833-.134A136.043 136.043 0 0 1 11.925 5h.073L12 4Zm-1.756 3.61a1 1 0 0 0-1.494.87v6.54a1 1 0 0 0 1.494.87l5.75-3.27a1 1 0 0 0 0-1.74l-5.75-3.27Zm3.233 4.14L10.75 13.3v-3.1l2.727 1.55Z" fill="#fff"/></svg>