<svg width="16" height="18" viewBox="0 0 16 18" fill="none" xmlns="http://www.w3.org/2000/svg">
<path fill-rule="evenodd" clip-rule="evenodd" d="M14.7228 10.9391C15.0513 9.80319 15.0868 8.60258 14.8258 7.44927C14.5649 6.29597 14.016 5.22756 13.2305 4.34374C12.445 3.45993 11.4483 2.78951 10.3336 2.39505C9.81296 2.21081 9.24153 2.48352 9.05729 3.00417C8.87305 3.52482 9.14577 4.09624 9.66641 4.28048C10.4626 4.56224 11.1745 5.04111 11.7356 5.67241C12.2967 6.3037 12.6888 7.06685 12.8752 7.89064C13.0616 8.71443 13.0362 9.57201 12.8015 10.3834C12.5669 11.1947 12.1305 11.9334 11.5331 12.5305C11.5257 12.5379 11.5184 12.5454 11.5113 12.553L10.3333 13.8065L10.3333 12.3311C10.3333 11.7788 9.88563 11.3311 9.33334 11.3311C8.78106 11.3311 8.33334 11.7788 8.33334 12.3311L8.33334 16.3311C8.33334 16.8834 8.78106 17.3311 9.33334 17.3311L13.3333 17.3311C13.8856 17.3311 14.3333 16.8834 14.3333 16.3311C14.3333 15.7788 13.8856 15.3311 13.3333 15.3311L11.6452 15.3311L12.9584 13.9335C13.7889 13.0996 14.3957 12.0698 14.7228 10.9391ZM6.66668 6.66443C7.21896 6.66443 7.66668 6.21672 7.66668 5.66443L7.66668 1.66443C7.66668 1.11265 7.21978 0.665254 6.6682 0.664433C6.66636 0.664427 6.66452 0.664427 6.66268 0.664432L2.66668 0.664432C2.11439 0.664432 1.66668 1.11215 1.66668 1.66443C1.66668 2.21672 2.11439 2.66443 2.66668 2.66443L4.3541 2.66443L3.04147 4.06211C2.21109 4.89598 1.60427 5.92581 1.27724 7.05644C0.948678 8.19234 0.913221 9.39295 1.17417 10.5463C1.43512 11.6996 1.98397 12.768 2.76952 13.6518C3.55506 14.5356 4.55169 15.206 5.66641 15.6005C6.18706 15.7847 6.75849 15.512 6.94273 14.9914C7.12697 14.4707 6.85425 13.8993 6.33361 13.715C5.53738 13.4333 4.8255 12.9544 4.2644 12.3231C3.70329 11.6918 3.31125 10.9287 3.12486 10.1049C2.93847 9.2811 2.96379 8.42352 3.19848 7.61217C3.43316 6.80081 3.86956 6.06213 4.46694 5.46505C4.47439 5.4576 4.48173 5.45003 4.48895 5.44234L5.66668 4.1883L5.66668 5.66443C5.66668 6.21672 6.11439 6.66443 6.66668 6.66443Z" fill="#1F8EFA"/>
</svg>
