<svg width="20" height="22" viewBox="0 0 20 22" fill="none" xmlns="http://www.w3.org/2000/svg">
<path fill-rule="evenodd" clip-rule="evenodd" d="M18.1633 13.3564C18.5623 11.9771 18.6053 10.5192 18.2884 9.11874C17.9716 7.7183 17.3051 6.42095 16.3512 5.34775C15.3974 4.27454 14.1872 3.46047 12.8336 2.98147C12.3129 2.79723 11.7415 3.06995 11.5573 3.59059C11.373 4.11124 11.6457 4.68267 12.1664 4.86691C13.2015 5.23319 14.1269 5.85572 14.8564 6.67641C15.5858 7.4971 16.0954 8.48919 16.3378 9.56011C16.5801 10.631 16.5471 11.7459 16.2421 12.8007C15.937 13.8554 15.3696 14.8157 14.5931 15.5919C14.5857 15.5993 14.5784 15.6068 14.5712 15.6144L12.6666 17.6413L12.6666 15.1659C12.6666 14.6136 12.2189 14.1659 11.6666 14.1659C11.1144 14.1659 10.6666 14.6136 10.6666 15.1659L10.6666 20.1659C10.6666 20.7181 11.1144 21.1659 11.6666 21.1659L16.6667 21.1659C17.2189 21.1659 17.6667 20.7181 17.6667 20.1659C17.6667 19.6136 17.2189 19.1659 16.6667 19.1659L13.9785 19.1659L16.0183 16.995C17.028 15.982 17.7658 14.7305 18.1633 13.3564ZM8.33332 7.83252C8.8856 7.83252 9.33332 7.38481 9.33332 6.83252L9.33332 1.83252C9.33332 1.28068 8.88632 0.833239 8.33464 0.832524C8.33269 0.832518 8.33074 0.832518 8.3288 0.832524L3.33331 0.832524C2.78103 0.832524 2.33331 1.28024 2.33331 1.83252C2.33331 2.38481 2.78103 2.83252 3.33331 2.83252L6.02034 2.83252L3.98154 5.00344C2.9719 6.01645 2.23413 7.26792 1.83667 8.642C1.43771 10.0213 1.39465 11.4792 1.71152 12.8796C2.02839 14.2801 2.69485 15.5774 3.64873 16.6506C4.6026 17.7238 5.8128 18.5379 7.16639 19.0169C7.68704 19.2011 8.25846 18.9284 8.4427 18.4078C8.62694 17.8871 8.35423 17.3157 7.83358 17.1315C6.79848 16.7652 5.87304 16.1427 5.1436 15.322C4.41417 14.5013 3.90452 13.5092 3.66221 12.4383C3.4199 11.3673 3.45282 10.2525 3.75791 9.19773C4.063 8.14297 4.63032 7.18268 5.40691 6.40647C5.41437 6.39902 5.4217 6.39145 5.42892 6.38377L7.33332 4.35597L7.33332 6.83252C7.33332 7.38481 7.78103 7.83252 8.33332 7.83252Z" fill="#516173"/>
</svg>
