<svg width="21" height="21" viewBox="0 0 21 21" fill="none" xmlns="http://www.w3.org/2000/svg">
<path d="M17.9965 10.002C17.9965 9.53142 17.6201 9.14992 17.1559 9.14992L0.84254 9.14992C0.378297 9.14992 0.00195308 9.53142 0.00195313 10.002C0.00195317 10.4726 0.378297 10.8541 0.84254 10.8541L17.1559 10.8541C17.6201 10.8541 17.9965 10.4726 17.9965 10.002Z" fill="#516173"/>
<path d="M16.4834 13.9216C16.1585 14.251 15.6316 14.251 15.3066 13.9216C14.9816 13.5922 14.9816 13.0581 15.3066 12.7287L17.9965 10.002L15.3066 7.27533C14.9816 6.94591 14.9816 6.41182 15.3066 6.0824C15.6316 5.75299 16.1585 5.75299 16.4834 6.0824L19.7558 9.39949C20.084 9.73225 20.084 10.2718 19.7558 10.6045L16.4834 13.9216Z" fill="#516173"/>
</svg>
