<svg width="24" height="24" viewBox="0 0 24 24" fill="none" xmlns="http://www.w3.org/2000/svg">
<path fill-rule="evenodd" clip-rule="evenodd" d="M12 1.99902C6.47715 1.99902 2 6.47618 2 11.999C2 17.5219 6.47715 21.999 12 21.999C17.5228 21.999 22 17.5219 22 11.999C22 6.47618 17.5228 1.99902 12 1.99902ZM0 11.999C0 5.37161 5.37258 -0.000976562 12 -0.000976562C18.6274 -0.000976562 24 5.37161 24 11.999C24 18.6264 18.6274 23.999 12 23.999C5.37258 23.999 0 18.6264 0 11.999ZM12.4072 7.04262C10.8545 6.77137 9.44433 7.6198 8.9402 9.01128C8.75207 9.53053 8.17862 9.79897 7.65936 9.61084C7.14011 9.42271 6.87168 8.84926 7.0598 8.33001C7.89624 6.02135 10.2476 4.63507 12.7514 5.07246C13.9024 5.27352 14.9799 5.73928 15.7729 6.58624C16.5789 7.44696 17 8.60444 17 10.003C17 11.8802 15.5668 13.1401 14.4851 13.8402C13.9101 14.2124 13.3425 14.4872 12.9228 14.6683C12.7115 14.7595 12.5341 14.8285 12.4072 14.8754C12.3436 14.8989 12.2925 14.917 12.2559 14.9296L12.212 14.9446L12.1987 14.949L12.1942 14.9505L12.1926 14.951L12.1919 14.9512C12.1916 14.9513 12.1913 14.9514 11.8962 14.0396L12.1913 14.9514C11.6658 15.1215 11.102 14.8334 10.9319 14.3079C10.762 13.7829 11.0495 13.2196 11.5741 13.049L11.5749 13.0487L11.5783 13.0476L11.6033 13.0391C11.627 13.031 11.6643 13.0178 11.7133 12.9996C11.8116 12.9633 11.9557 12.9074 12.1304 12.832C12.4825 12.6801 12.9441 12.4553 13.3983 12.1613C14.3749 11.5291 15 10.7905 15 10.003C15 9.02255 14.7152 8.38277 14.313 7.95324C13.8979 7.50996 13.2651 7.19248 12.4072 7.04262ZM12 17C11.4477 17 11 17.4477 11 18C11 18.5523 11.4477 19 12 19H12.01C12.5623 19 13.01 18.5523 13.01 18C13.01 17.4477 12.5623 17 12.01 17H12Z" fill="#1F8EFA"/>
</svg>
