<svg width="16" height="16" viewBox="0 0 16 16" fill="none" xmlns="http://www.w3.org/2000/svg">
<path fill-rule="evenodd" clip-rule="evenodd" d="M3.33333 3C3.24493 3 3.16014 3.03512 3.09763 3.09763C3.03512 3.16014 3 3.24493 3 3.33333V12.6667C3 12.7551 3.03512 12.8399 3.09763 12.9024C3.16014 12.9649 3.24493 13 3.33333 13H6C6.55228 13 7 13.4477 7 14C7 14.5523 6.55228 15 6 15H3.33333C2.71449 15 2.121 14.7542 1.68342 14.3166C1.24583 13.879 1 13.2855 1 12.6667V3.33333C1 2.7145 1.24583 2.121 1.68342 1.68342C2.121 1.24583 2.7145 1 3.33333 1H6C6.55228 1 7 1.44772 7 2C7 2.55228 6.55228 3 6 3H3.33333ZM9.95956 3.95956C10.3501 3.56904 10.9832 3.56904 11.3738 3.95956L14.7071 7.29289C15.0976 7.68342 15.0976 8.31658 14.7071 8.70711L11.3738 12.0404C10.9832 12.431 10.3501 12.431 9.95956 12.0404C9.56904 11.6499 9.56904 11.0168 9.95956 10.6262L11.5858 9H6C5.44772 9 5 8.55228 5 8C5 7.44771 5.44772 7 6 7H11.5858L9.95956 5.37377C9.56904 4.98325 9.56904 4.35008 9.95956 3.95956Z" fill="#7F8FA4"/>
</svg>
