<svg width="24" height="24" viewBox="0 0 24 24" fill="none" xmlns="http://www.w3.org/2000/svg">
<path fill-rule="evenodd" clip-rule="evenodd" d="M17 1.99999C17 1.44771 16.5523 0.999992 16 0.999992C15.4477 0.999992 15 1.44771 15 1.99999V2.001H9V1.99999C9 1.44771 8.55228 0.999992 8 0.999992C7.44772 0.999992 7 1.44771 7 1.99999V2.001H5C3.34315 2.001 2 3.34415 2 5.001V20.001C2 21.6579 3.34315 23.001 5 23.001H19C20.6569 23.001 22 21.6579 22 20.001V5.001C22 3.34415 20.6569 2.001 19 2.001H17V1.99999ZM8 4.99999C7.44805 4.99999 7.00054 4.55282 7 4.001H5C4.44772 4.001 4 4.44871 4 5.001V7.001H20V5.001C20 4.44871 19.5523 4.001 19 4.001H17C16.9995 4.55282 16.5519 4.99999 16 4.99999C15.4481 4.99999 15.0005 4.55282 15 4.001H9C8.99946 4.55282 8.55195 4.99999 8 4.99999ZM20 9.001H4V20.001C4 20.5533 4.44772 21.001 5 21.001H19C19.5523 21.001 20 20.5533 20 20.001V9.001ZM6 16C6 15.4477 6.44772 15 7 15H10C10.5523 15 11 15.4477 11 16V18C11 18.5523 10.5523 19 10 19H7C6.44772 19 6 18.5523 6 18V16ZM13 11C12.4477 11 12 11.4477 12 12V14C12 14.5523 12.4477 15 13 15H17C17.5523 15 18 14.5523 18 14V12C18 11.4477 17.5523 11 17 11H13Z" fill="#354052"/>
</svg>
