<svg width="24" height="24" viewBox="0 0 24 24" fill="none" xmlns="http://www.w3.org/2000/svg">
<path fill-rule="evenodd" clip-rule="evenodd" d="M16 0.999992C16.5523 0.999992 17 1.44771 17 1.99999V2.001H19C20.6569 2.001 22 3.34415 22 5.001V20.001C22 21.6579 20.6569 23.001 19 23.001H5C3.34315 23.001 2 21.6579 2 20.001V5.001C2 3.34415 3.34315 2.001 5 2.001H7V1.99999C7 1.44771 7.44772 0.999992 8 0.999992C8.55228 0.999992 9 1.44771 9 1.99999V2.001H15V1.99999C15 1.44771 15.4477 0.999992 16 0.999992ZM7 4.001C7.00054 4.55282 7.44805 4.99999 8 4.99999C8.55195 4.99999 8.99946 4.55282 9 4.001H15C15.0005 4.55282 15.4481 4.99999 16 4.99999C16.5519 4.99999 16.9995 4.55282 17 4.001H19C19.5523 4.001 20 4.44871 20 5.001V7.001H4V5.001C4 4.44871 4.44772 4.001 5 4.001H7ZM4 9.001H20V20.001C20 20.5533 19.5523 21.001 19 21.001H5C4.44772 21.001 4 20.5533 4 20.001V9.001ZM7 11C6.44772 11 6 11.4477 6 12V14C6 14.5523 6.44772 15 7 15H9C9.55228 15 10 14.5523 10 14V12C10 11.4477 9.55228 11 9 11H7Z" fill="#516173"/>
</svg>
