<svg width="16" height="17" viewBox="0 0 16 17" fill="none" xmlns="http://www.w3.org/2000/svg">
<g filter="url(#filter0_d_103_122468)">
<path fill-rule="evenodd" clip-rule="evenodd" d="M3.09763 3.09934C3.16014 3.03683 3.24493 3.00171 3.33333 3.00171H10.6667C11.219 3.00171 11.6667 2.55399 11.6667 2.00171C11.6667 1.44942 11.219 1.00171 10.6667 1.00171H3.33333C2.7145 1.00171 2.121 1.24754 1.68342 1.68513C1.24583 2.12271 1 2.7162 1 3.33504V12.6684C1 13.2872 1.24583 13.8807 1.68342 14.3183C2.121 14.7559 2.71449 15.0017 3.33333 15.0017H12.6667C13.2855 15.0017 13.879 14.7559 14.3166 14.3183C14.7542 13.8807 15 13.2872 15 12.6684V8.00171C15 7.44942 14.5523 7.00171 14 7.00171C13.4477 7.00171 13 7.44942 13 8.00171V12.6684C13 12.7568 12.9649 12.8416 12.9024 12.9041C12.8399 12.9666 12.7551 13.0017 12.6667 13.0017H3.33333C3.24493 13.0017 3.16014 12.9666 3.09763 12.9041C3.03512 12.8416 3 12.7568 3 12.6684V3.33504C3 3.24664 3.03512 3.16185 3.09763 3.09934ZM15.3738 3.37548C15.7643 2.98496 15.7643 2.35179 15.3738 1.96127C14.9832 1.57074 14.3501 1.57074 13.9596 1.96127L8 7.92083L6.70711 6.62794C6.31658 6.23741 5.68342 6.23741 5.29289 6.62794C4.90237 7.01846 4.90237 7.65162 5.29289 8.04215L7.29289 10.0421C7.68342 10.4327 8.31658 10.4327 8.70711 10.0421L15.3738 3.37548Z" fill="white"/>
</g>
<defs>
<filter id="filter0_d_103_122468" x="0" y="0.00170898" width="16" height="17" filterUnits="userSpaceOnUse" color-interpolation-filters="sRGB">
<feFlood flood-opacity="0" result="BackgroundImageFix"/>
<feColorMatrix in="SourceAlpha" type="matrix" values="0 0 0 0 0 0 0 0 0 0 0 0 0 0 0 0 0 0 127 0" result="hardAlpha"/>
<feOffset dy="1"/>
<feColorMatrix type="matrix" values="0 0 0 0 0.109804 0 0 0 0 0.109804 0 0 0 0 0.109804 0 0 0 0.1 0"/>
<feBlend mode="normal" in2="BackgroundImageFix" result="effect1_dropShadow_103_122468"/>
<feBlend mode="normal" in="SourceGraphic" in2="effect1_dropShadow_103_122468" result="shape"/>
</filter>
</defs>
</svg>
