<svg width="25" height="25" viewBox="0 0 25 25" fill="none" xmlns="http://www.w3.org/2000/svg">
<path fill-rule="evenodd" clip-rule="evenodd" d="M9.08243 0.0485101C13.1719 -0.367914 17.1075 2.15802 18.4782 6.00192H19.0001H19.0012C21.811 6.00523 24.2933 8.02526 24.8675 10.7757C25.4418 13.5262 23.975 16.3707 21.4012 17.4979C20.8953 17.7195 20.3056 17.489 20.0841 16.9831C19.8625 16.4772 20.093 15.8875 20.5989 15.6659C22.306 14.9183 23.2906 13.0088 22.9097 11.1845C22.5289 9.3603 20.8627 8.0043 18.9993 8.00192L18.9989 8.00192L17.74 8.00192C17.2841 8.00192 16.8858 7.69346 16.7718 7.25196C15.9197 3.9521 12.6555 1.69502 9.28504 2.03822C5.91458 2.38143 3.17235 5.25012 3.00282 8.65401C2.89198 10.8796 3.88352 13.0797 5.62431 14.4707C6.05577 14.8155 6.12604 15.4447 5.78126 15.8762C5.43649 16.3076 4.80724 16.3779 4.37579 16.0331C2.13271 14.2407 0.862476 11.4222 1.0053 8.55453C1.22416 4.16 4.73249 0.491452 9.08243 0.0485101ZM9 15.002C8.44772 15.002 8.00001 15.4497 8.00001 16.002C8.00001 16.5543 8.44772 17.002 9 17.002H9.01C9.56229 17.002 10.01 16.5543 10.01 16.002C10.01 15.4497 9.56229 15.002 9.01 15.002H9ZM8.00001 20.002C8.00001 19.4497 8.44772 19.002 9 19.002H9.01C9.56229 19.002 10.01 19.4497 10.01 20.002C10.01 20.5543 9.56229 21.002 9.01 21.002H9C8.44772 21.002 8.00001 20.5543 8.00001 20.002ZM13 17.002C12.4477 17.002 12 17.4497 12 18.002C12 18.5543 12.4477 19.002 13 19.002H13.01C13.5623 19.002 14.01 18.5543 14.01 18.002C14.01 17.4497 13.5623 17.002 13.01 17.002H13ZM12 22.002C12 21.4497 12.4477 21.002 13 21.002H13.01C13.5623 21.002 14.01 21.4497 14.01 22.002C14.01 22.5543 13.5623 23.002 13.01 23.002H13C12.4477 23.002 12 22.5543 12 22.002ZM13 13.002C12.4477 13.002 12 13.4498 12 14.002C12 14.5543 12.4477 15.002 13 15.002H13.01C13.5623 15.002 14.01 14.5543 14.01 14.002C14.01 13.4498 13.5623 13.002 13.01 13.002H13ZM16 16.002C16 15.4497 16.4477 15.002 17 15.002H17.01C17.5623 15.002 18.01 15.4497 18.01 16.002C18.01 16.5543 17.5623 17.002 17.01 17.002H17C16.4477 17.002 16 16.5543 16 16.002ZM17 19.002C16.4477 19.002 16 19.4497 16 20.002C16 20.5543 16.4477 21.002 17 21.002H17.01C17.5623 21.002 18.01 20.5543 18.01 20.002C18.01 19.4497 17.5623 19.002 17.01 19.002H17Z" fill="#0085F0"/>
</svg>
