<svg width="12" height="13" viewBox="0 0 12 13" fill="none" xmlns="http://www.w3.org/2000/svg">
<path fill-rule="evenodd" clip-rule="evenodd" d="M1.5 3.00196C1.50003 2.72813 1.72616 2.50201 2 2.50201H10C10.2738 2.50201 10.5 2.72813 10.5 3.00196C10.4045 3.00187 10.308 3.02907 10.2226 3.08599L6 5.90109L1.77735 3.08599C1.69197 3.02907 1.59545 3.00187 1.5 3.00196ZM1.5 4.10294V9.00201C1.5 9.27587 1.72614 9.50201 2 9.50201H10C10.2739 9.50201 10.5 9.27587 10.5 9.00201V4.10294L6.27735 6.91804C6.1094 7.03001 5.8906 7.03001 5.72265 6.91804L1.5 4.10294ZM2 1.50201C1.17386 1.50201 0.5 2.17587 0.5 3.00201V9.00201C0.5 9.82816 1.17386 10.502 2 10.502H10C10.8261 10.502 11.5 9.82816 11.5 9.00201V3.00201C11.5 2.17587 10.8261 1.50201 10 1.50201H2Z" fill="#7F8FA4"/>
</svg>
