<svg width="16" height="17" viewBox="0 0 16 17" fill="none" xmlns="http://www.w3.org/2000/svg">
<path fill-rule="evenodd" clip-rule="evenodd" d="M7.6838 4.05205C7.88907 3.98363 8.11099 3.98363 8.31626 4.05205L14.3163 6.05205C14.8402 6.2267 15.1234 6.79302 14.9487 7.31696C14.7741 7.8409 14.2077 8.12406 13.6838 7.94942L8.00003 6.05483L2.31625 7.94942C1.79231 8.12406 1.22599 7.8409 1.05134 7.31696C0.876696 6.79302 1.15986 6.2267 1.6838 6.05205L7.6838 4.05205ZM1.6838 10.052L7.6838 8.05205C7.88907 7.98363 8.11099 7.98363 8.31626 8.05205L14.3163 10.052C14.8402 10.2267 15.1234 10.793 14.9487 11.317C14.7741 11.8409 14.2077 12.1241 13.6838 11.9494L8.00003 10.0548L2.31625 11.9494C1.79231 12.1241 1.22599 11.8409 1.05134 11.317C0.876696 10.793 1.15986 10.2267 1.6838 10.052Z" fill="#FF3031"/>
</svg>
