<svg width="24" height="25" viewBox="0 0 24 25" fill="none" xmlns="http://www.w3.org/2000/svg">
<path d="M19 11.0017H5C3.89543 11.0017 3 11.8971 3 13.0017V20.0017C3 21.1063 3.89543 22.0017 5 22.0017H19C20.1046 22.0017 21 21.1063 21 20.0017V13.0017C21 11.8971 20.1046 11.0017 19 11.0017Z" stroke="#354052" stroke-width="2" stroke-linecap="round" stroke-linejoin="round"/>
<path d="M7 10.0017V7.00171C7 5.67563 7.52678 4.40386 8.46447 3.46618C9.40215 2.52849 10.6739 2.00171 12 2.00171C13.3261 2.00171 14.5979 2.52849 15.5355 3.46618C16.4732 4.40386 17 5.67563 17 7.00171V10.0017" stroke="#354052" stroke-width="2" stroke-linecap="round" stroke-linejoin="round"/>
</svg>
