<svg width="32" height="33" viewBox="0 0 32 33" fill="none" xmlns="http://www.w3.org/2000/svg">
<path fill-rule="evenodd" clip-rule="evenodd" d="M30.2088 23.3646C31.3533 21.1606 32 18.6566 32 16.0015C32 13.0001 31.1736 10.1917 29.7358 7.79146C29.7148 7.86669 29.6931 7.94175 29.6706 8.01655C29.354 9.07181 28.8484 10.2431 28.0202 11.172C29.0734 12.8752 30.3158 15.5608 30.3158 19.4465C30.3158 19.9931 30.0508 20.5032 29.6093 20.8178C29.8798 21.5658 30.0903 22.4019 30.2088 23.3646ZM27.8949 26.7027C27.8271 26.6697 27.7611 26.632 27.6973 26.5894L26.8001 25.9913C26.3826 27.3388 25.4996 28.6376 24.1683 29.7623C25.5609 28.9339 26.817 27.9001 27.8949 26.7027ZM23.217 30.2852C22.8662 30.3546 22.4953 30.312 22.1604 30.1511C21.5769 29.8706 21.2057 29.2805 21.2057 28.6331C21.2057 28.3629 21.1967 28.1026 21.1799 27.8521C21.166 27.8714 21.1519 27.8908 21.1376 27.9101C20.2093 29.169 18.5841 30.3173 16 30.3173C13.4159 30.3173 11.7906 29.169 10.8624 27.9101C10.8481 27.8908 10.834 27.8714 10.8201 27.8521C10.8033 28.1026 10.7943 28.3629 10.7943 28.6331C10.7943 29.2805 10.4232 29.8706 9.83963 30.1511C9.50469 30.312 9.13379 30.3546 8.78297 30.2852C10.9513 31.383 13.4034 32.0015 16 32.0015C18.5966 32.0015 21.0487 31.383 23.217 30.2852ZM7.83171 29.7623C6.50042 28.6376 5.6174 27.3388 5.19989 25.9913L4.30265 26.5894C4.23888 26.632 4.17286 26.6697 4.10509 26.7027C5.18301 27.9001 6.43914 28.9339 7.83171 29.7623ZM1.79117 23.3646C0.646698 21.1606 0 18.6566 0 16.0015C0 13.0001 0.826436 10.1917 2.26416 7.79146C2.28522 7.8667 2.30696 7.94175 2.3294 8.01656C2.64598 9.07182 3.15159 10.2431 3.97986 11.172C2.92658 12.8752 1.68419 15.5608 1.68421 19.4465C1.68421 19.9931 1.94923 20.5032 2.39064 20.8178C2.1202 21.5658 1.90965 22.4018 1.79117 23.3646ZM7.24225 2.60896L10.8 3.50519L10.855 3.49077C12.367 3.09897 14.1832 3.02685 16 3.79119C17.8168 3.02685 19.633 3.09897 21.145 3.49077L21.2 3.50519L24.7577 2.60895C22.2416 0.960262 19.2328 0.00150013 16 0.00150013C12.7672 0.00150013 9.75835 0.960263 7.24225 2.60896Z" fill="#1F8EFA"/>
<path d="M3.1096 3.03781C3.21197 2.95803 3.34542 2.92992 3.47128 2.96162L10.8201 4.81287C10.9357 4.77753 11.0531 4.74432 11.1719 4.71353C12.6277 4.33628 14.3383 4.31546 16 5.18659C17.6617 4.31546 19.3723 4.33628 20.8281 4.71353C20.9469 4.74432 21.0643 4.77753 21.1799 4.81287L28.5287 2.96162C28.6545 2.92992 28.788 2.95803 28.8904 3.03781C28.9927 3.11759 29.0526 3.24013 29.0526 3.36992C29.0526 4.54621 28.9063 6.16816 28.4607 7.65359C28.0697 8.95711 27.4239 10.235 26.3681 10.9627C27.3942 12.4301 29.0526 15.1169 29.0526 19.4465C29.0526 19.5924 28.9771 19.7279 28.8529 19.8046C28.7288 19.8814 28.5738 19.8883 28.4433 19.8231L27.5148 19.3588C28.3579 20.781 29.0526 22.4764 29.0526 25.1881C29.0526 25.3434 28.9672 25.4861 28.8303 25.5593C28.6933 25.6326 28.5272 25.6246 28.398 25.5384L25.8003 23.8066C25.9389 25.4981 25.1329 27.3779 23.153 28.9619C23.0266 29.063 22.8534 29.0827 22.7076 29.0126C22.5617 28.9425 22.4689 28.7949 22.4689 28.6331C22.4689 26.9471 22.1497 25.5862 21.7563 24.5485C21.5373 24.898 21.2521 25.1956 20.9281 25.4364C20.9028 25.5425 20.8627 25.6899 20.8017 25.8649C20.6789 26.2172 20.4694 26.688 20.1209 27.1605C19.4125 28.1212 18.1531 29.0541 16 29.0541C13.8469 29.0541 12.5874 28.1212 11.879 27.1605C11.5306 26.688 11.3211 26.2172 11.1983 25.8649C11.1373 25.6899 11.0972 25.5425 11.0719 25.4364C10.7479 25.1956 10.4627 24.898 10.2437 24.5485C9.85033 25.5862 9.53111 26.9471 9.53111 28.6331C9.53111 28.7949 9.43833 28.9425 9.29245 29.0126C9.14657 29.0827 8.97341 29.063 8.84702 28.9619C6.86711 27.3779 6.06108 25.4981 6.19974 23.8066L3.60198 25.5384C3.47278 25.6246 3.30665 25.6326 3.16974 25.5593C3.03284 25.4861 2.94737 25.3434 2.94737 25.1881C2.94737 22.4764 3.64203 20.781 4.48523 19.3588L3.55672 19.8231C3.4262 19.8883 3.27119 19.8814 3.14706 19.8046C3.02293 19.7279 2.94737 19.5924 2.94737 19.4465C2.94735 15.1169 4.60579 12.4301 5.63191 10.9627C4.57614 10.235 3.93035 8.95712 3.53929 7.65359C3.09366 6.16816 2.94737 4.54622 2.94737 3.36992C2.94737 3.24013 3.00723 3.1176 3.1096 3.03781Z" fill="url(#paint0_linear_103_25709)"/>
<path d="M10.8325 5.2502L3.36842 3.36992C3.36842 5.66657 3.94257 9.68571 6.23925 10.834C5.2823 12.1737 3.3684 14.8532 3.36842 19.4465L5.66507 18.2981C4.51674 20.0206 3.36842 21.7431 3.36842 25.1881L6.8134 22.8915C6.23923 24.6139 6.8134 26.7958 9.11005 28.6331C9.11005 26.3364 9.6842 24.6139 10.2584 23.4656C10.4063 24.2054 10.8593 24.7926 11.4502 25.1881M16 22.8915C16 22.8915 16 21.0541 13.7033 20.5948V17.1498L10.2584 14.8532M16 22.8915C16 22.8915 16 21.0541 18.2966 20.5948V17.1498L21.7416 14.8532M16 22.8915C16 25.8749 18.8474 26.3273 20.5498 25.1881M16 22.8915C16 25.8749 13.1525 26.3273 11.4502 25.1881M7.96173 6.8149C9.30144 5.66657 12.7847 3.82925 16 5.66657C19.2153 3.82925 22.6986 5.66657 24.0383 6.8149M21.1675 5.2502L28.6315 3.36992C28.6316 5.66657 28.0575 9.68571 25.7608 10.834C26.7177 12.1737 28.6316 14.8532 28.6316 19.4465L26.3349 18.2981C27.4832 20.0206 28.6315 21.7431 28.6316 25.1881L25.1866 22.8915C25.7608 24.6139 25.1866 26.7958 22.8899 28.6331C22.8899 26.3364 22.3158 24.6139 21.7416 23.4656C21.5937 24.2054 21.1407 24.7926 20.5498 25.1881M20.5498 25.1881C20.5498 25.1881 20.0191 28.6331 16 28.6331C11.9809 28.6331 11.4502 25.1881 11.4502 25.1881M19.445 10.8605C18.654 10.5649 17.4795 10.2599 16 10.2599C14.5205 10.2599 13.3459 10.5649 12.555 10.8605" stroke="#1F8EFA" stroke-linecap="round" stroke-linejoin="round"/>
<defs>
<linearGradient id="paint0_linear_103_25709" x1="16" y1="2.94855" x2="16" y2="29.0538" gradientUnits="userSpaceOnUse">
<stop stop-color="#EFF3F6"/>
<stop offset="1" stop-color="#DFE3E9"/>
</linearGradient>
</defs>
</svg>
