<svg width="20" height="21" viewBox="0 0 20 21" fill="none" xmlns="http://www.w3.org/2000/svg">
<path fill-rule="evenodd" clip-rule="evenodd" d="M12.5 1.50201C11.9477 1.50201 11.5 1.94973 11.5 2.50201C11.5 3.0543 11.9477 3.50201 12.5 3.50201H15.0858L10.9596 7.62824C10.569 8.01876 10.569 8.65193 10.9596 9.04245C11.3501 9.43298 11.9832 9.43298 12.3738 9.04245L16.5 4.91623V7.50201C16.5 8.0543 16.9477 8.50201 17.5 8.50201C18.0523 8.50201 18.5 8.0543 18.5 7.50201V2.50201C18.5 1.94973 18.0523 1.50201 17.5 1.50201H12.5ZM9.04044 12.3758C9.43096 11.9853 9.43096 11.3521 9.04044 10.9616C8.64992 10.571 8.01675 10.571 7.62623 10.9616L3.5 15.0878V12.502C3.5 11.9497 3.05228 11.502 2.5 11.502C1.94772 11.502 1.5 11.9497 1.5 12.502V17.502C1.5 18.0543 1.94772 18.502 2.5 18.502H7.5C8.05228 18.502 8.5 18.0543 8.5 17.502C8.5 16.9497 8.05228 16.502 7.5 16.502H4.91421L9.04044 12.3758Z" fill="#516173"/>
</svg>
