<svg width="12" height="13" viewBox="0 0 12 13" fill="none" xmlns="http://www.w3.org/2000/svg">
<path fill-rule="evenodd" clip-rule="evenodd" d="M2.43511 1.00222C1.86842 1.00842 1.4263 1.16784 1.23689 1.37289C1.07382 1.54943 0.98407 1.8266 1.00226 2.24072C1.02042 2.65425 1.14501 3.14295 1.33745 3.65765C1.72137 4.68446 2.33236 5.70361 2.67303 6.22329L2.67545 6.22698L2.67543 6.22699C3.46788 7.4594 4.5255 8.50475 5.77355 9.28848L5.77744 9.29093L5.77743 9.29095C6.37493 9.67387 7.36643 10.3017 8.3679 10.6842C8.86854 10.8754 9.34189 10.9933 9.74995 11.0016C10.1515 11.0097 10.4562 10.9124 10.681 10.7087C10.7332 10.6613 10.8141 10.5393 10.883 10.3113C10.9487 10.0943 10.9896 9.82715 10.9982 9.54698C11.0069 9.26717 10.983 8.99133 10.9299 8.7579C10.8748 8.51604 10.798 8.36135 10.7318 8.28412C10.6847 8.22922 10.57 8.14096 10.3671 8.04227C10.1737 7.94819 9.93579 7.86168 9.68201 7.79264C9.15226 7.64852 8.65571 7.60734 8.40767 7.65962C8.28253 7.68599 8.14526 7.76844 7.97244 7.92957C7.88796 8.00833 7.80475 8.09636 7.71412 8.1942C7.70175 8.20755 7.68914 8.22121 7.67631 8.2351C7.59953 8.31822 7.51521 8.40949 7.43127 8.49245C7.27263 8.64923 7.02933 8.68197 6.83488 8.5727C5.39968 7.76623 4.21058 6.59144 3.39366 5.17167C3.28039 4.9748 3.31404 4.72632 3.47559 4.56667C3.55953 4.48371 3.65192 4.40039 3.73605 4.32453C3.75004 4.31191 3.76381 4.2995 3.77726 4.28733C3.87627 4.1978 3.96534 4.11561 4.04503 4.03217C4.20857 3.86091 4.29033 3.72661 4.31625 3.60651C4.36804 3.36649 4.32729 2.88081 4.18226 2.35873C4.11293 2.10916 4.02614 1.87501 3.93193 1.68458C3.83319 1.48501 3.74489 1.37155 3.68961 1.32457C3.47678 1.14368 2.99743 0.996071 2.43511 1.00222ZM2.42417 0.00228247C3.09724 -0.00508028 3.86119 0.158025 4.3372 0.562582C4.54401 0.73834 4.70513 0.992326 4.82822 1.24113C4.95584 1.49906 5.06331 1.79421 5.14578 2.09108C5.30434 2.66188 5.39729 3.33765 5.29374 3.81746C5.21002 4.2054 4.97843 4.50269 4.76823 4.72281C4.66771 4.82806 4.56216 4.92558 4.46681 5.012C5.11198 6.01543 5.97394 6.86623 6.99128 7.50301C7.0804 7.40693 7.18136 7.29992 7.29049 7.19816C7.51375 6.99001 7.81304 6.76297 8.20144 6.68111C8.68373 6.57947 9.36583 6.67028 9.94452 6.82771C10.245 6.90945 10.5437 7.01611 10.8046 7.14304C11.0561 7.26536 11.3133 7.42596 11.491 7.63322C11.7058 7.8838 11.8321 8.21565 11.905 8.53605C11.9798 8.86489 12.0086 9.22704 11.9978 9.57795C11.9869 9.92851 11.9359 10.2848 11.8402 10.601C11.7478 10.9062 11.5979 11.2271 11.3526 11.4495C10.886 11.8726 10.3051 12.013 9.72972 12.0014C9.16093 11.9899 8.56632 11.8305 8.01111 11.6184C6.9021 11.1948 5.83152 10.5133 5.23981 10.1341C3.86956 9.27327 2.70721 8.12477 1.8355 6.76969C1.47742 6.22325 0.821866 5.13409 0.40078 4.00786C0.190483 3.4454 0.0278617 2.84573 0.00321902 2.28459C-0.0213979 1.72404 0.0904631 1.14023 0.502316 0.694362C0.970113 0.18793 1.75547 0.00959748 2.42417 0.00228247Z" fill="#7F8FA4"/>
</svg>
