<svg width="20" height="21" viewBox="0 0 20 21" fill="none" xmlns="http://www.w3.org/2000/svg">
<path fill-rule="evenodd" clip-rule="evenodd" d="M3.5 9.16867C3.5 6.03905 6.03705 3.502 9.16667 3.502C12.2963 3.502 14.8333 6.03905 14.8333 9.16867C14.8333 10.6911 14.233 12.0733 13.2561 13.0914C13.2255 13.1156 13.1961 13.1417 13.1679 13.1699C13.1397 13.1981 13.1136 13.2275 13.0894 13.258C12.0713 14.235 10.6891 14.8353 9.16667 14.8353C6.03705 14.8353 3.5 12.2983 3.5 9.16867ZM13.8347 15.2509C12.5419 16.2446 10.9233 16.8353 9.16667 16.8353C4.93248 16.8353 1.5 13.4028 1.5 9.16867C1.5 4.93448 4.93248 1.502 9.16667 1.502C13.4008 1.502 16.8333 4.93448 16.8333 9.16867C16.8333 10.9253 16.2426 12.5439 15.2489 13.8367L18.2071 16.7949C18.5976 17.1854 18.5976 17.8186 18.2071 18.2091C17.8166 18.5996 17.1834 18.5996 16.7929 18.2091L13.8347 15.2509Z" fill="#7F8FA4"/>
</svg>
