<svg width="18" height="18" viewBox="0 0 18 18" fill="none" xmlns="http://www.w3.org/2000/svg">
<path fill-rule="evenodd" clip-rule="evenodd" d="M11.2944 2.50312C10.7454 0.0536092 7.25449 0.0536022 6.70557 2.50312L7.68137 2.72179L6.70557 2.50312L6.67557 2.63699C6.6224 2.87425 6.35007 2.98705 6.1447 2.85688L5.60933 3.7015L6.1447 2.85688L6.02883 2.78343C3.90862 1.43951 1.44015 3.90797 2.78407 6.02819L2.85752 6.14406L3.61142 5.66619L2.85752 6.14406C2.9877 6.34943 2.87489 6.62176 2.63763 6.67493L2.50376 6.70493C0.0542513 7.25384 0.0542422 10.7448 2.50376 11.2937L2.63762 11.3237L2.85074 10.3727L2.63763 11.3237C2.87489 11.3769 2.9877 11.6492 2.85752 11.8546L2.78407 11.9704C1.44015 14.0907 3.90861 16.5591 6.02883 15.2152L5.53151 14.4306L6.02883 15.2152L6.1447 15.1418C6.35007 15.0116 6.6224 15.1244 6.67557 15.3616L6.70557 15.4955L7.65615 15.2825L6.70557 15.4955C7.25449 17.945 10.7454 17.945 11.2943 15.4955L11.3243 15.3617L10.3485 15.143L11.3243 15.3616C11.3775 15.1244 11.6498 15.0116 11.8552 15.1418L11.9711 15.2152C14.0913 16.5591 16.5598 14.0907 15.2158 11.9704L15.1424 11.8546L14.3864 12.3338L15.1424 11.8546C15.0122 11.6492 15.125 11.3769 15.3623 11.3237L15.4962 11.2937L15.2775 10.3179L15.4962 11.2937C17.9457 10.7448 17.9457 7.25385 15.4962 6.70493L15.3623 6.67493C15.125 6.62176 15.0122 6.34943 15.1424 6.14406L15.2158 6.02819L14.3712 5.49282L15.2158 6.02819C16.5598 3.90798 14.0913 1.43951 11.9711 2.78343L11.8552 2.85688L12.2292 3.44686L11.8552 2.85688C11.6498 2.98706 11.3775 2.87425 11.3243 2.63699L11.2944 2.50313L10.3186 2.72179L11.2944 2.50312ZM8.65717 2.94046C8.68383 2.82145 8.73417 2.76553 8.77767 2.73328C8.83012 2.6944 8.90791 2.66599 8.99996 2.66599C9.09201 2.66599 9.1698 2.6944 9.22225 2.73328C9.26575 2.76553 9.31608 2.82145 9.34275 2.94046L9.37275 3.07432C9.72863 4.6624 11.5514 5.41741 12.926 4.54611L13.0418 4.47267C13.1448 4.40737 13.22 4.40342 13.2735 4.41137C13.3381 4.42097 13.4132 4.45588 13.4783 4.52097C13.5434 4.58606 13.5783 4.66116 13.5879 4.72574C13.5959 4.7793 13.5919 4.85444 13.5266 4.95745L13.4532 5.07332L14.2762 5.59501L13.4532 5.07332C12.5819 6.4479 13.3369 8.27065 14.925 8.62653L15.0588 8.65652C15.1778 8.68319 15.2338 8.73353 15.266 8.77703C15.3049 8.82948 15.3333 8.90727 15.3333 8.99932C15.3333 9.09137 15.3049 9.16916 15.266 9.22161C15.2338 9.26511 15.1778 9.31544 15.0588 9.34211L14.925 9.37211L15.1115 10.2044L14.925 9.37211C13.3369 9.72798 12.5819 11.5507 13.4532 12.9253L13.5266 13.0412L14.3712 12.5058L13.5266 13.0412C13.5919 13.1442 13.5959 13.2193 13.5879 13.2729C13.5783 13.3375 13.5434 13.4126 13.4783 13.4777C13.4132 13.5428 13.3381 13.5777 13.2735 13.5873C13.22 13.5952 13.1448 13.5913 13.0418 13.526L12.926 13.4525C11.5514 12.5812 9.72863 13.3362 9.37275 14.9243L9.34275 15.0582L10.3186 15.2768L9.34275 15.0582C9.31608 15.1772 9.26575 15.2331 9.22225 15.2654C9.1698 15.3042 9.09201 15.3326 8.99996 15.3326C8.90791 15.3326 8.83012 15.3042 8.77767 15.2654C8.73417 15.2331 8.68383 15.1772 8.65717 15.0582L8.62717 14.9243C8.27129 13.3362 6.44854 12.5812 5.07396 13.4525L4.95809 13.526C4.85508 13.5913 4.77994 13.5952 4.72638 13.5873C4.6618 13.5777 4.5867 13.5428 4.52161 13.4777C4.45652 13.4126 4.42161 13.3375 4.41202 13.2729C4.40406 13.2193 4.40801 13.1442 4.47331 13.0412L4.54675 12.9253C5.41805 11.5507 4.66304 9.72798 3.07497 9.37211L2.9411 9.34211C2.82209 9.31544 2.76617 9.26511 2.73392 9.22161C2.69504 9.16916 2.66663 9.09137 2.66663 8.99932C2.66663 8.90727 2.69504 8.82948 2.73392 8.77703C2.76617 8.73353 2.82209 8.68319 2.94111 8.65652L3.07497 8.62653C4.66304 8.27065 5.41805 6.4479 4.54675 5.07332L4.47331 4.95745C4.40801 4.85444 4.40406 4.7793 4.41202 4.72574C4.42161 4.66116 4.45652 4.58606 4.52161 4.52097C4.5867 4.45588 4.6618 4.42097 4.72638 4.41137C4.77994 4.40342 4.85508 4.40737 4.95809 4.47267L5.49346 3.62805L4.95809 4.47267L5.07396 4.54611C6.44854 5.41741 8.27129 4.6624 8.62717 3.07432L8.65717 2.94046ZM7.99996 8.99999C7.99996 8.4477 8.44767 7.99999 8.99996 7.99999C9.55224 7.99999 9.99996 8.4477 9.99996 8.99999C9.99996 9.55227 9.55224 9.99999 8.99996 9.99999C8.44767 9.99999 7.99996 9.55227 7.99996 8.99999ZM8.99996 5.99999C7.34311 5.99999 5.99996 7.34313 5.99996 8.99999C5.99996 10.6568 7.34311 12 8.99996 12C10.6568 12 12 10.6568 12 8.99999C12 7.34313 10.6568 5.99999 8.99996 5.99999Z" fill="#7F8FA4"/>
</svg>
