<svg width="16" height="16" viewBox="0 0 16 16" fill="none" xmlns="http://www.w3.org/2000/svg">
<path fill-rule="evenodd" clip-rule="evenodd" d="M6.43096 2.43097C6.49348 2.36845 6.57826 2.33334 6.66667 2.33334H9.33333C9.42174 2.33334 9.50652 2.36845 9.56904 2.43097C9.63155 2.49348 9.66667 2.57826 9.66667 2.66667V3H6.33333V2.66667C6.33333 2.57826 6.36845 2.49348 6.43096 2.43097ZM4.33333 3V2.66667C4.33333 2.04783 4.57917 1.45434 5.01675 1.01675C5.45434 0.579168 6.04783 0.333336 6.66667 0.333336H9.33333C9.95217 0.333336 10.5457 0.579168 10.9832 1.01675C11.4208 1.45434 11.6667 2.04783 11.6667 2.66667V3H12.6667H14C14.5523 3 15 3.44772 15 4C15 4.55229 14.5523 5 14 5H13.6667V13.3333C13.6667 13.9522 13.4208 14.5457 12.9832 14.9833C12.5457 15.4208 11.9522 15.6667 11.3333 15.6667H4.66667C4.04783 15.6667 3.45434 15.4208 3.01675 14.9833C2.57917 14.5457 2.33333 13.9522 2.33333 13.3333V5H2C1.44772 5 1 4.55229 1 4C1 3.44772 1.44772 3 2 3H3.33333H4.33333ZM4.33333 5V13.3333C4.33333 13.4217 4.36845 13.5065 4.43096 13.569C4.49348 13.6315 4.57826 13.6667 4.66667 13.6667H11.3333C11.4217 13.6667 11.5065 13.6315 11.569 13.569C11.6315 13.5065 11.6667 13.4217 11.6667 13.3333V5H10.6667H5.33333H4.33333Z" fill="#7F8FA4"/>
</svg>
