<svg width="24" height="24" viewBox="0 0 24 24" fill="none" xmlns="http://www.w3.org/2000/svg">
<path fill-rule="evenodd" clip-rule="evenodd" d="M12.011 2.99994C13.0678 2.98832 14.1001 3.30861 14.8444 3.85718C15.5727 4.39397 16 5.12147 16 6.00002C16 6.55231 16.4477 7.00002 17 7.00002C17.5523 7.00002 18 6.55231 18 6.00002C18 4.37856 17.1775 3.0923 16.031 2.24722C14.9004 1.41391 13.4327 0.984194 11.989 1.00006C8.72615 1.03591 6 3.40676 6 7.00003H7L6 7.00005V7.00011V7.00021V7.00036V7.00055V7.00078V7.00105V7.00136V7.00171V7.0021V7.00253V7.00301V7.00352V7.00408V7.00467V7.00531V7.00598V7.0067V7.00745V7.00825V7.00908V7.00996V7.01087V7.01182V7.01281V7.01385V7.01492V7.01602V7.01717V7.01836V7.01958V7.02085V7.02215V7.02349V7.02486V7.02628V7.02773V7.02923V7.03075V7.03232V7.03392V7.03557V7.03724V7.03896V7.04071V7.0425V7.04433V7.04619V7.04809V7.05002V7.05199V7.054V7.05605V7.05813V7.06024V7.06239V7.06458V7.0668V7.06906V7.07136V7.07368V7.07605V7.07845V7.08088V7.08335V7.08585V7.08839V7.09096V7.09357V7.09621V7.09888V7.10159V7.10433V7.10711V7.10992V7.11276V7.11563V7.11854V7.12149V7.12446V7.12747V7.13051V7.13359V7.13669V7.13983V7.14301V7.14621V7.14945V7.15272V7.15602V7.15935V7.16271V7.16611V7.16954V7.17299V7.17648V7.18001V7.18356V7.18714V7.19075V7.1944V7.19807V7.20178V7.20552V7.20928V7.21308V7.21691V7.22076V7.22465V7.22857V7.23251V7.23649V7.24049V7.24453V7.24859V7.25268V7.25681V7.26096V7.26513V7.26934V7.27358V7.27784V7.28214V7.28646V7.29081V7.29518V7.29959V7.30402V7.30848V7.31297V7.31748V7.32203V7.3266V7.33119V7.33582V7.34047V7.34515V7.34985V7.35458V7.35934V7.36412V7.36893V7.37376V7.37863V7.38351V7.38843V7.39337V7.39833V7.40332V7.40833V7.41337V7.41844V7.42353V7.42864V7.43378V7.43895V7.44414V7.44935V7.45459V7.45985V7.46513V7.47044V7.47578V7.48114V7.48652V7.49192V7.49735V7.5028V7.50827V7.51377V7.51929V7.52484V7.5304V7.53599V7.5416V7.54723V7.55289V7.55857V7.56427V7.56999V7.57573V7.5815V7.58729V7.5931V7.59893V7.60478V7.61065V7.61654V7.62246V7.62839V7.63435V7.64033V7.64633V7.65234V7.65838V7.66444V7.67052V7.67662V7.68273V7.68887V7.69503V7.70121V7.7074V7.71362V7.71985V7.72611V7.73238V7.73867V7.74498V7.75131V7.75766V7.76403V7.77041V7.77681V7.78324V7.78967V7.79613V7.8026V7.8091V7.81561V7.82213V7.82868V7.83524V7.84182V7.84841V7.85502V7.86165V7.8683V7.87496V7.88164V7.88833V7.89505V7.90177V7.90852V7.91527V7.92205V7.92884V7.93564V7.94247V7.9493V7.95615V7.96302V7.9699V7.9768V7.98371V7.99064V7.99758V8.00453V8.0115V8.01848V8.02548V8.03249V8.03952V8.04656V8.05361V8.06068V8.06776V8.07485V8.08195V8.08907V8.09621V8.10335V8.11051V8.11768V8.12486V8.13206V8.13926V8.14648V8.15371V8.16096V8.16821V8.17548V8.18276V8.19005V8.19735V8.20467V8.21199V8.21933V8.22667V8.23403V8.2414V8.24878V8.25616V8.26356V8.27097V8.27839V8.28582V8.29326V8.30071V8.30817V8.31564V8.32312V8.33061V8.33811V8.34561V8.35313V8.36065V8.36819V8.37573V8.38328V8.39084V8.39841V8.40598V8.41357V8.42116V8.42876V8.43637V8.44399V8.45161V8.45924V8.46688V8.47452V8.48218V8.48984V8.4975V8.50518V8.51286V8.52055V8.52824V8.53594V8.54365V8.55136V8.55908V8.5668V8.57453V8.58227V8.59001V8.59776V8.60551V8.61327V8.62103V8.6288V8.63658V8.64435V8.65214V8.65992V8.66772V8.67551V8.68331V8.69112V8.69893V8.70674V8.71456V8.72238V8.7302V8.73803V8.74586V8.7537V8.76153V8.76938V8.77722V8.78507V8.79292V8.80077V8.80862V8.81648V8.82434V8.8322V8.84006V8.84793V8.8558V8.86366V8.87153V8.87941V8.88728V8.89516V8.90303V8.91091V8.91879V8.92667V8.93455V8.94243V8.95031V8.95819V8.96607V8.97395V8.98183V8.98971V8.9976V9.00548V9.01336V9.02124V9.02912V9.037V9.04488V9.05275V9.06063V9.06851V9.07638V9.08425V9.09212V9.09999V9.10786V9.11573V9.12359V9.13145V9.13931V9.14717V9.15503V9.16288V9.17073V9.17858V9.18642V9.19426V9.2021V9.20994V9.21777V9.2256V9.23343V9.24125V9.24907V9.25688V9.26469V9.2725V9.2803V9.2881V9.29589V9.30368V9.31147V9.31925V9.32702V9.33479V9.34256V9.35032V9.35807V9.36582V9.37356V9.3813V9.38904V9.39676V9.40448V9.4122V9.41991V9.42761V9.43531V9.443V9.45068V9.45835V9.46602V9.47369V9.48134V9.48899V9.49663V9.50427V9.51189V9.51951V9.52712V9.53472V9.54232V9.54991V9.55749V9.56506V9.57262V9.58017V9.58772V9.59526V9.60278V9.6103V9.61781V9.62531V9.63281V9.64029V9.64776V9.65522V9.66268V9.67012V9.67755V9.68498V9.69239V9.69979V9.70719V9.71457V9.72194V9.7293V9.73665V9.74399V9.75132V9.75864V9.76594V9.77324V9.78052V9.78779V9.79505V9.8023V9.80954V9.81676V9.82397V9.83117V9.83836V9.84553V9.8527V9.85984V9.86698V9.87411V9.88122V9.88831V9.8954V9.90247V9.90953V9.91657V9.9236V9.93062V9.93762V9.94461V9.95158V9.95854V9.96549V9.97242V9.97934V9.98624V9.99312V10C6 10 6 10 6 10H5C3.34315 10 2 11.3432 2 13V20C2 21.6569 3.34315 23 5 23H19C20.6569 23 22 21.6569 22 20V13C22 11.3432 20.6569 10 19 10H8C8 10 8 10 8 10V9.99312V9.98624V9.97934V9.97242V9.96549V9.95854V9.95158V9.94461V9.93762V9.93062V9.9236V9.91657V9.90953V9.90247V9.8954V9.88831V9.88122V9.87411V9.86698V9.85984V9.8527V9.84553V9.83836V9.83117V9.82397V9.81676V9.80954V9.8023V9.79505V9.78779V9.78052V9.77324V9.76594V9.75864V9.75132V9.74399V9.73665V9.7293V9.72194V9.71457V9.70719V9.69979V9.69239V9.68498V9.67755V9.67012V9.66268V9.65522V9.64776V9.64029V9.63281V9.62531V9.61781V9.6103V9.60278V9.59526V9.58772V9.58017V9.57262V9.56506V9.55749V9.54991V9.54232V9.53472V9.52712V9.51951V9.51189V9.50427V9.49663V9.48899V9.48134V9.47369V9.46602V9.45835V9.45068V9.443V9.43531V9.42761V9.41991V9.4122V9.40448V9.39676V9.38904V9.3813V9.37356V9.36582V9.35807V9.35032V9.34256V9.33479V9.32702V9.31925V9.31147V9.30368V9.29589V9.2881V9.2803V9.2725V9.26469V9.25688V9.24907V9.24125V9.23343V9.2256V9.21777V9.20994V9.2021V9.19426V9.18642V9.17858V9.17073V9.16288V9.15503V9.14717V9.13931V9.13145V9.12359V9.11573V9.10786V9.09999V9.09212V9.08425V9.07638V9.06851V9.06063V9.05275V9.04488V9.037V9.02912V9.02124V9.01336V9.00548V8.9976V8.98971V8.98183V8.97395V8.96607V8.95819V8.95031V8.94243V8.93455V8.92667V8.91879V8.91091V8.90303V8.89516V8.88728V8.87941V8.87153V8.86366V8.8558V8.84793V8.84006V8.8322V8.82434V8.81648V8.80862V8.80077V8.79292V8.78507V8.77722V8.76938V8.76153V8.7537V8.74586V8.73803V8.7302V8.72238V8.71456V8.70674V8.69893V8.69112V8.68331V8.67551V8.66772V8.65992V8.65214V8.64435V8.63658V8.6288V8.62103V8.61327V8.60551V8.59776V8.59001V8.58227V8.57453V8.5668V8.55908V8.55136V8.54365V8.53594V8.52824V8.52055V8.51286V8.50518V8.4975V8.48984V8.48218V8.47452V8.46688V8.45924V8.45161V8.44399V8.43637V8.42876V8.42116V8.41357V8.40598V8.39841V8.39084V8.38328V8.37573V8.36819V8.36065V8.35313V8.34561V8.33811V8.33061V8.32312V8.31564V8.30817V8.30071V8.29326V8.28582V8.27839V8.27097V8.26356V8.25616V8.24878V8.2414V8.23403V8.22667V8.21933V8.21199V8.20467V8.19735V8.19005V8.18276V8.17548V8.16821V8.16096V8.15371V8.14648V8.13926V8.13206V8.12486V8.11768V8.11051V8.10335V8.09621V8.08907V8.08195V8.07485V8.06776V8.06068V8.05361V8.04656V8.03952V8.03249V8.02548V8.01848V8.0115V8.00453V7.99758V7.99064V7.98371V7.9768V7.9699V7.96302V7.95615V7.9493V7.94247V7.93564V7.92884V7.92205V7.91527V7.90852V7.90177V7.89505V7.88833V7.88164V7.87496V7.8683V7.86165V7.85502V7.84841V7.84182V7.83524V7.82868V7.82213V7.81561V7.8091V7.8026V7.79613V7.78967V7.78324V7.77681V7.77041V7.76403V7.75766V7.75131V7.74498V7.73867V7.73238V7.72611V7.71985V7.71362V7.7074V7.70121V7.69503V7.68887V7.68273V7.67662V7.67052V7.66444V7.65838V7.65234V7.64633V7.64033V7.63435V7.62839V7.62246V7.61654V7.61065V7.60478V7.59893V7.5931V7.58729V7.5815V7.57573V7.56999V7.56427V7.55857V7.55289V7.54723V7.5416V7.53599V7.5304V7.52484V7.51929V7.51377V7.50827V7.5028V7.49735V7.49192V7.48652V7.48114V7.47578V7.47044V7.46513V7.45985V7.45459V7.44935V7.44414V7.43895V7.43378V7.42864V7.42353V7.41844V7.41337V7.40833V7.40332V7.39833V7.39337V7.38843V7.38351V7.37863V7.37376V7.36893V7.36412V7.35934V7.35458V7.34985V7.34515V7.34047V7.33582V7.33119V7.3266V7.32203V7.31748V7.31297V7.30848V7.30402V7.29959V7.29518V7.29081V7.28646V7.28214V7.27784V7.27358V7.26934V7.26513V7.26096V7.25681V7.25268V7.24859V7.24453V7.24049V7.23649V7.23251V7.22857V7.22465V7.22076V7.21691V7.21308V7.20928V7.20552V7.20178V7.19807V7.1944V7.19075V7.18714V7.18356V7.18001V7.17648V7.17299V7.16954V7.16611V7.16271V7.15935V7.15602V7.15272V7.14945V7.14621V7.14301V7.13983V7.13669V7.13359V7.13051V7.12747V7.12446V7.12149V7.11854V7.11563V7.11276V7.10992V7.10711V7.10433V7.10159V7.09888V7.09621V7.09357V7.09096V7.08839V7.08585V7.08335V7.08088V7.07845V7.07605V7.07368V7.07136V7.06906V7.0668V7.06458V7.06239V7.06024V7.05813V7.05605V7.054V7.05199V7.05002V7.04809V7.04619V7.04433V7.0425V7.04071V7.03896V7.03724V7.03557V7.03392V7.03232V7.03075V7.02923V7.02773V7.02628V7.02486V7.02349V7.02215V7.02085V7.01958V7.01836V7.01717V7.01602V7.01492V7.01385V7.01281V7.01182V7.01087V7.00996V7.00908V7.00825V7.00745V7.0067V7.00598V7.00531V7.00467V7.00408V7.00352V7.00301V7.00253V7.0021V7.00171V7.00136V7.00105V7.00078V7.00055V7.00036V7.00021V7.00011V7.00005L7 7.00003H8C8 4.59324 9.75132 3.02477 12.011 2.99994ZM4 13C4 12.4477 4.44772 12 5 12H19C19.5523 12 20 12.4477 20 13V20C20 20.5523 19.5523 21 19 21H5C4.44772 21 4 20.5523 4 20V13Z" fill="#354052"/>
</svg>
