<svg width="16" height="16" viewBox="0 0 16 16" fill="none" xmlns="http://www.w3.org/2000/svg">
<path fill-rule="evenodd" clip-rule="evenodd" d="M6.33333 4.66667C6.33333 3.74619 7.07952 3 8 3C8.92047 3 9.66666 3.74619 9.66666 4.66667C9.66666 5.58714 8.92047 6.33333 8 6.33333C7.07952 6.33333 6.33333 5.58714 6.33333 4.66667ZM8 1C5.97495 1 4.33333 2.64162 4.33333 4.66667C4.33333 6.69171 5.97495 8.33333 8 8.33333C10.025 8.33333 11.6667 6.69171 11.6667 4.66667C11.6667 2.64162 10.025 1 8 1ZM6.31475 8.99935C4.92592 8.99935 3.65629 9.78402 3.03519 11.0262L1.77223 13.5521C1.52525 14.0461 1.72547 14.6468 2.21945 14.8938C2.71343 15.1408 3.3141 14.9405 3.56109 14.4466L4.82404 11.9207C5.10636 11.356 5.68347 10.9993 6.31475 10.9993H9.68524C10.3165 10.9993 10.8936 11.356 11.1759 11.9207L12.4389 14.4466C12.6859 14.9405 13.2866 15.1408 13.7805 14.8938C14.2745 14.6468 14.4747 14.0461 14.2278 13.5521L12.9648 11.0262C12.3437 9.78402 11.0741 8.99935 9.68524 8.99935H6.31475Z" fill="#7F8FA4"/>
</svg>
