<svg width="96" height="96" viewBox="0 0 96 96" fill="none" xmlns="http://www.w3.org/2000/svg">
<rect width="96" height="96" rx="48" fill="#FFF8E1"/>
<path fill-rule="evenodd" clip-rule="evenodd" d="M47.9999 13.3301C28.854 13.3301 13.3333 28.8509 13.3333 47.9967C13.3333 67.1426 28.854 82.6634 47.9999 82.6634C67.1458 82.6634 82.6666 67.1426 82.6666 47.9967C82.6666 28.8509 67.1458 13.3301 47.9999 13.3301ZM9.33325 47.9967C9.33325 26.6417 26.6449 9.33008 47.9999 9.33008C69.3549 9.33008 86.6666 26.6417 86.6666 47.9967C86.6666 69.3518 69.3549 86.6634 47.9999 86.6634C26.6449 86.6634 9.33325 69.3518 9.33325 47.9967ZM47.9999 29.3333C49.1045 29.3333 49.9999 30.2288 49.9999 31.3333V51.3333C49.9999 52.4379 49.1045 53.3333 47.9999 53.3333C46.8954 53.3333 45.9999 52.4379 45.9999 51.3333V31.3333C45.9999 30.2288 46.8954 29.3333 47.9999 29.3333ZM47.9999 62.6667C46.8954 62.6667 45.9999 63.5621 45.9999 64.6667C45.9999 65.7712 46.8954 66.6667 47.9999 66.6667H48.0333C49.1378 66.6667 50.0333 65.7712 50.0333 64.6667C50.0333 63.5621 49.1378 62.6667 48.0333 62.6667H47.9999Z" fill="#FFB300"/>
</svg>
