<svg width="17" height="16" viewBox="0 0 17 16" fill="none" xmlns="http://www.w3.org/2000/svg">
<path fill-rule="evenodd" clip-rule="evenodd" d="M12.7111 4.7076C13.1016 4.31707 13.1016 3.68391 12.7111 3.29338C12.3206 2.90286 11.6874 2.90286 11.2969 3.29338L8.00397 6.58627L4.71107 3.29338C4.32055 2.90286 3.68738 2.90286 3.29686 3.29338C2.90634 3.68391 2.90634 4.31707 3.29686 4.7076L6.58975 8.00049L3.29686 11.2934C2.90634 11.6839 2.90634 12.3171 3.29686 12.7076C3.68738 13.0981 4.32055 13.0981 4.71107 12.7076L8.00397 9.4147L11.2969 12.7076C11.6874 13.0981 12.3206 13.0981 12.7111 12.7076C13.1016 12.3171 13.1016 11.6839 12.7111 11.2934L9.41818 8.00049L12.7111 4.7076Z" fill="#354052"/>
</svg>
