<svg width="12" height="13" fill="none" xmlns="http://www.w3.org/2000/svg"><path fill-rule="evenodd" clip-rule="evenodd" d="M2.435 1.002c-.567.006-1.009.166-1.198.37-.163.177-.253.455-.235.869.018.413.143.902.335 1.417.384 1.026.995 2.046 1.336 2.565l.002.004a10.01 10.01 0 0 0 3.099 3.061l.003.003c.598.383 1.59 1.01 2.59 1.393.502.191.975.31 1.383.318.402.008.706-.09.931-.293.052-.048.133-.17.202-.398.066-.217.107-.484.115-.764a3.197 3.197 0 0 0-.068-.79c-.055-.241-.132-.396-.198-.473-.047-.055-.162-.143-.365-.242a4.008 4.008 0 0 0-.685-.25c-.53-.143-1.026-.185-1.274-.132-.125.026-.263.108-.436.27a5.101 5.101 0 0 0-.258.264l-.038.041a7.948 7.948 0 0 1-.245.257.5.5 0 0 1-.596.08 9.124 9.124 0 0 1-3.441-3.4.5.5 0 0 1 .082-.605 7.91 7.91 0 0 1 .26-.242l.041-.038c.1-.09.188-.171.268-.255.164-.171.245-.305.271-.425.052-.24.011-.726-.134-1.248a3.925 3.925 0 0 0-.25-.674c-.099-.2-.187-.313-.242-.36-.213-.181-.693-.329-1.255-.323Zm-.01-1c.672-.007 1.436.156 1.912.56.207.176.368.43.491.68.128.257.235.552.318.85.158.57.251 1.246.148 1.725-.084.388-.316.686-.526.906-.1.105-.206.203-.301.289A8.124 8.124 0 0 0 6.99 7.503a5.9 5.9 0 0 1 .3-.305c.223-.208.522-.435.91-.517.483-.102 1.165-.01 1.744.147a5 5 0 0 1 .86.315c.251.122.508.283.686.49.215.25.341.583.414.903.075.329.104.691.093 1.042a4.02 4.02 0 0 1-.158 1.023c-.092.305-.242.626-.487.848-.467.424-1.048.564-1.623.552-.57-.011-1.164-.17-1.719-.383-1.109-.423-2.18-1.105-2.771-1.484A11.01 11.01 0 0 1 1.835 6.77C1.477 6.223.822 5.134.401 4.008.19 3.445.028 2.846.003 2.285-.02 1.724.09 1.14.503.695.97.187 1.754.01 2.423.001Z" fill="#7F8FA4"/></svg>