<svg width="96" height="96" fill="none" xmlns="http://www.w3.org/2000/svg"><rect width="96" height="96" rx="48" fill="#FFF8E1"/><path fill-rule="evenodd" clip-rule="evenodd" d="M48 13.33c-19.146 0-34.667 15.52-34.667 34.667 0 19.146 15.521 34.666 34.667 34.666s34.667-15.52 34.667-34.666C82.667 28.85 67.146 13.33 48 13.33ZM9.333 47.997C9.333 26.642 26.645 9.33 48 9.33s38.667 17.312 38.667 38.667S69.355 86.663 48 86.663 9.333 69.352 9.333 47.997ZM48 29.333a2 2 0 0 1 2 2v20a2 2 0 1 1-4 0v-20a2 2 0 0 1 2-2Zm0 33.334a2 2 0 0 0 0 4h.033a2 2 0 0 0 0-4H48Z" fill="#FFB300"/></svg>