<svg width="24" height="24" viewBox="0 0 24 24" fill="none" xmlns="http://www.w3.org/2000/svg">
<path fill-rule="evenodd" clip-rule="evenodd" d="M22.6395 2.23116C22.9275 2.47073 23.0575 2.85119 22.9762 3.21691L18.9762 21.2169C18.9013 21.5539 18.6579 21.8285 18.3323 21.9432C18.0066 22.0579 17.6449 21.9965 17.3753 21.7809L13.0742 18.34L9.70711 21.7071C9.45433 21.9599 9.08585 22.0585 8.7406 21.9658C8.39536 21.873 8.12587 21.6031 8.03377 21.2576L6.16298 14.2422L1.62861 12.4285C1.25257 12.278 1.00438 11.9157 1.00006 11.5107C0.995731 11.1057 1.23611 10.7381 1.60886 10.5797L21.6089 2.07965C21.9537 1.93311 22.3514 1.99159 22.6395 2.23116ZM8.17224 14.0148L9.01085 17.1596L9.53524 15.2369C9.57795 15.0802 9.65817 14.9364 9.76895 14.8177L12.7623 11.6105L8.17224 14.0148ZM10.9555 17.6302L12.2929 16.2929C12.6532 15.9326 13.2268 15.9008 13.6247 16.2191L17.3719 19.2168L20.6021 4.68064L4.62254 11.472L6.94387 12.4005L17.036 7.11415C17.4678 6.88795 17.9999 7.00611 18.2954 7.39385C18.5909 7.78159 18.5637 8.32591 18.2311 8.6823L11.3997 16.0016L10.9555 17.6302Z" fill="white"/>
</svg>
