<svg width="24" height="24" viewBox="0 0 24 24" fill="none" xmlns="http://www.w3.org/2000/svg">
<path fill-rule="evenodd" clip-rule="evenodd" d="M8.084 6.55295C8.084 5.74728 8.74913 5.04895 9.642 5.04895H13.088C13.4958 5.04895 14.019 5.1654 14.3767 5.64441C14.6778 6.04774 14.714 6.52959 14.714 6.85495V10.0235C15.2672 9.31419 15.7556 8.49181 16.1321 7.78016C16.3596 7.35026 16.5398 6.97295 16.6627 6.70432C16.7241 6.57021 16.7709 6.46373 16.8019 6.39196C16.8173 6.3561 16.8289 6.32895 16.8362 6.3114L16.8442 6.29242L16.8458 6.28855L16.8458 6.28854L16.8459 6.28832L16.8459 6.28817L16.846 6.28805L16.8493 6.27988L16.853 6.2713C16.9648 6.01272 17.1533 5.69224 17.4874 5.43949C17.8345 5.17687 18.257 5.04895 18.724 5.04895H20.917C21.3744 5.04895 21.9899 5.16343 22.3683 5.70454C22.7197 6.20718 22.6436 6.7663 22.5475 7.10571C22.4376 7.57396 22.1593 8.14487 21.8793 8.65982C21.5738 9.22142 21.1998 9.83349 20.8425 10.3929C20.4838 10.9544 20.1349 11.4737 19.8762 11.8519C19.7467 12.0413 19.6393 12.1959 19.5641 12.3036C19.5457 12.3299 19.5293 12.3533 19.5149 12.3738C19.5411 12.4026 19.5724 12.4358 19.6094 12.4739C19.7095 12.5773 19.8306 12.6959 19.9734 12.8358L19.9792 12.8415L19.9844 12.8466C20.2587 13.1153 20.6059 13.4556 20.8938 13.7939C21.3684 14.3277 21.8022 14.8398 22.1472 15.3068C22.4806 15.7581 22.7898 16.2439 22.9403 16.7139L22.9444 16.7265L22.9481 16.7393C23.0887 17.222 23.1096 17.8569 22.6683 18.369C22.2579 18.8452 21.6677 18.95 21.229 18.95H19.037C18.6798 18.95 18.3467 18.875 18.0286 18.7083C17.7322 18.5531 17.4925 18.3403 17.2896 18.1369C17.1271 17.974 16.949 17.7758 16.7637 17.5697C16.7222 17.5235 16.6804 17.477 16.6383 17.4303C16.3999 17.1663 16.1207 16.8622 15.7696 16.5107C15.2907 16.05 14.9485 15.7758 14.713 15.613V17.0979C14.713 17.4544 14.66 18.1211 14.0102 18.5572C13.5176 18.8879 12.8447 18.951 12.148 18.951C9.42751 18.951 6.59806 17.3188 4.64376 14.5163C3.24272 12.5521 2.34152 10.8151 1.78735 9.47696C1.51028 8.80795 1.31817 8.23434 1.19376 7.77791C1.07716 7.35012 1 6.95417 1 6.66895C1 6.40409 1.04661 5.93402 1.41931 5.5456C1.79542 5.15363 2.30404 5.04995 2.752 5.04995H4.944C5.37671 5.04995 5.84818 5.14903 6.24311 5.51279C6.58735 5.82986 6.75726 6.25035 6.86952 6.57639L6.86977 6.57711C7.38185 8.068 8.06881 9.46047 8.70471 10.4651C8.79053 10.6007 8.87415 10.7272 8.955 10.8444V8.71996C8.92302 8.20641 8.7852 7.99275 8.68334 7.85416C8.64793 7.80598 8.61216 7.76169 8.56254 7.70024L8.56022 7.69737L8.55702 7.6934C8.51266 7.63848 8.44688 7.55703 8.38619 7.46926C8.25084 7.27352 8.084 6.96779 8.084 6.55295ZM8.9376 12.2239C8.93757 12.2238 8.93786 12.2224 8.93856 12.2197C8.93798 12.2226 8.93764 12.2239 8.9376 12.2239ZM9.77931 11.8005C9.78586 11.8037 9.78924 11.8058 9.78929 11.8061C9.78934 11.8063 9.78607 11.8047 9.77931 11.8005ZM17.8138 11.3158L17.814 11.3155L17.8152 11.3138L17.8204 11.3064L17.8417 11.2762C17.8606 11.2494 17.8887 11.2095 17.9246 11.1581C17.9966 11.0551 18.1001 10.9059 18.2255 10.7227C18.4764 10.3558 18.813 9.85486 19.157 9.31624C19.5024 8.77554 19.8486 8.20754 20.1223 7.70424C20.264 7.44374 20.3728 7.22443 20.4513 7.04895H18.724C18.7131 7.04895 18.7037 7.04926 18.6957 7.04972C18.6943 7.05266 18.6928 7.05582 18.6913 7.05919L18.68 7.08643C18.6702 7.10958 18.6562 7.14257 18.6381 7.18449C18.602 7.26831 18.5493 7.38802 18.4814 7.53636C18.3459 7.83264 18.1487 8.24526 17.8999 8.71549C17.4087 9.64396 16.6903 10.847 15.8207 11.8173L15.8034 11.8366L15.7852 11.855C15.3302 12.3126 14.8128 12.825 14.055 12.825C13.0526 12.825 12.714 11.8414 12.714 11.198V7.04895H10.5371C10.747 7.43416 10.9154 7.93626 10.9535 8.6366L10.955 8.66375V8.69095V11.919C10.955 12.2628 10.937 12.7149 10.7315 13.0863C10.6029 13.3185 10.4057 13.5158 10.141 13.6352C9.90443 13.742 9.68173 13.755 9.548 13.755C9.16967 13.755 8.86269 13.5916 8.67317 13.4669C8.4652 13.33 8.27113 13.1539 8.09576 12.9701C7.743 12.6005 7.37399 12.1023 7.01479 11.5348C6.29273 10.394 5.53924 8.86006 4.97832 7.22706C4.95178 7.15 4.92942 7.09262 4.91088 7.04995H3.07149C3.08619 7.1113 3.10339 7.17866 3.12336 7.25196C3.2232 7.61824 3.38672 8.11182 3.63515 8.71169C4.13156 9.91032 4.95989 11.5161 6.27501 13.3591L6.28157 13.3683L6.28152 13.3683C7.95111 15.7649 10.222 16.951 12.148 16.951C12.3996 16.951 12.5823 16.9394 12.713 16.9229V15.132C12.713 14.9492 12.7219 14.751 12.759 14.56C12.7962 14.3679 12.8735 14.1204 13.0557 13.894C13.4595 13.3926 14.0471 13.38 14.287 13.38C15.0353 13.38 15.8458 13.8074 17.1637 15.0767L17.1705 15.0832L17.1771 15.0898C17.5658 15.4785 17.8726 15.8129 18.1229 16.0902C18.1745 16.1474 18.2226 16.2008 18.2677 16.251C18.4497 16.4534 18.5832 16.6018 18.7056 16.7245C18.8544 16.8736 18.9256 16.9204 18.9566 16.9367C18.9573 16.937 18.958 16.9374 18.9587 16.9378C18.9677 16.9427 18.981 16.95 19.037 16.95H20.8483C20.7714 16.824 20.6699 16.6729 20.5385 16.4951C20.2457 16.0987 19.8562 15.6367 19.3918 15.1146L19.3839 15.1057L19.3762 15.0966C19.1555 14.8362 18.8707 14.5554 18.5795 14.2701C18.5618 14.2527 18.5435 14.2349 18.5249 14.2167C18.2907 13.9876 17.9988 13.7022 17.8287 13.4707C17.6103 13.1862 17.3828 12.7903 17.4238 12.2846C17.4564 11.8814 17.6653 11.5492 17.7617 11.3959C17.7681 11.3856 17.7741 11.3761 17.7795 11.3674L17.7958 11.3411L17.8138 11.3158L17.8138 11.3158ZM3.00044 6.65641C3.00051 6.6565 3.00046 6.65859 3.00008 6.66244C3.00018 6.65826 3.00037 6.65633 3.00044 6.65641ZM2.67056 7.05441C2.66774 7.05509 2.66622 7.05533 2.66617 7.05528C2.66611 7.05524 2.66752 7.0549 2.67056 7.05441ZM13.1002 7.04932C13.1002 7.04933 13.0995 7.04929 13.0982 7.04917ZM14.7168 11.2468C14.7168 11.2468 14.7166 11.2459 14.7163 11.2439ZM12.7048 6.70793C12.7048 6.70793 12.7048 6.70809 12.7049 6.70839C12.7049 6.70836 12.7049 6.70833 12.7049 6.7083C12.7048 6.70805 12.7048 6.70794 12.7048 6.70793Z" fill="white"/>
</svg>
