<svg width="24" height="24" viewBox="0 0 24 24" fill="none" xmlns="http://www.w3.org/2000/svg">
<path fill-rule="evenodd" clip-rule="evenodd" d="M12 4C12 3 11.9999 3 11.9998 3L11.9995 3L11.9984 3L11.9944 3L11.9791 3.00001L11.9201 3.00011C11.8685 3.00023 11.7929 3.00046 11.6963 3.00091C11.5031 3.00182 11.2256 3.00363 10.8874 3.00724C10.2114 3.01448 9.29099 3.02895 8.31526 3.05794C7.34113 3.08689 6.30386 3.13054 5.39659 3.19671C4.51729 3.26085 3.67525 3.35123 3.1416 3.49395L3.12773 3.49777C2.50157 3.67492 1.96799 3.96245 1.44352 4.50315C0.919043 5.04384 0.647889 5.58593 0.489887 6.21719C0.484477 6.23881 0.47979 6.2606 0.475836 6.28253C0.150528 8.08643 -0.00876794 9.91636 -5.37389e-05 11.7493C-0.0113038 13.5961 0.148004 15.44 0.475843 17.2575C0.481702 17.29 0.489164 17.3222 0.498203 17.3539C0.672374 17.9655 0.951073 18.487 1.47467 19.0052C1.99827 19.5234 2.52269 19.7967 3.13604 19.9645L3.13604 19.9646L3.1416 19.966C3.67525 20.1088 4.51729 20.1992 5.39659 20.2633C6.30386 20.3295 7.34113 20.3731 8.31526 20.4021C9.29099 20.4311 10.2114 20.4455 10.8874 20.4528C11.2256 20.4564 11.5031 20.4582 11.6963 20.4591C11.7929 20.4595 11.8685 20.4598 11.9201 20.4599L11.9791 20.46L11.9944 20.46L11.9984 20.46H11.9995H11.9998C11.9999 20.46 12 20.46 12 19.46C12 20.46 12 20.46 12.0001 20.46H12.0004H12.0015L12.0055 20.46L12.0208 20.46L12.0799 20.4599C12.1314 20.4598 12.207 20.4595 12.3036 20.4591C12.4969 20.4582 12.7743 20.4564 13.1125 20.4528C13.7885 20.4455 14.7089 20.4311 15.6847 20.4021C16.6588 20.3731 17.6961 20.3295 18.6033 20.2633C19.4826 20.1992 20.3247 20.1088 20.8583 19.966L20.8722 19.9622C21.4983 19.7851 22.0319 19.4975 22.5564 18.9569C23.0809 18.4162 23.352 17.8741 23.51 17.2428C23.5154 17.2212 23.5201 17.1994 23.5241 17.1774C23.8469 15.3869 24.0062 13.5707 24 11.7513C24.0113 9.90432 23.852 8.06021 23.5241 6.24249C23.5201 6.22057 23.5154 6.19879 23.51 6.17719C23.352 5.54593 23.0809 5.00384 22.5564 4.46315C22.0319 3.92245 21.4983 3.63492 20.8722 3.45777C20.8606 3.45448 20.8489 3.45141 20.8372 3.44854C20.3115 3.32017 19.4767 3.23798 18.597 3.1794C17.6915 3.11909 16.6556 3.07928 15.6821 3.05287C14.7071 3.02641 13.7872 3.01321 13.1116 3.00661C12.7736 3.00331 12.4963 3.00166 12.3032 3.00083C12.2067 3.00042 12.1312 3.00021 12.0797 3.0001L12.0207 3.00001L12.0054 3L12.0015 3L12.0004 3L12.0001 3C12 3 12 3 12 4ZM12 4L12 5H12.0002L12.001 5L12.0045 5L12.0188 5.00001L12.0756 5.0001L12.2947 5.00081C12.4846 5.00162 12.7582 5.00325 13.0921 5.00651C13.7602 5.01304 14.6679 5.02609 15.6278 5.05213C16.5893 5.07822 17.5959 5.11716 18.4641 5.17498C19.3432 5.23352 20.0058 5.3073 20.3456 5.38734C20.6514 5.47591 20.8657 5.5927 21.1208 5.85566C21.3725 6.11511 21.4831 6.33064 21.5621 6.6325C21.8642 8.31923 22.0107 10.0301 22 11.7437H21.9999L22 11.7536C22.006 13.4414 21.8595 15.1262 21.5621 16.7875C21.4831 17.0894 21.3725 17.3049 21.1208 17.5643C20.8628 17.8304 20.6464 17.9468 20.3349 18.0357C20.0062 18.1223 19.3462 18.2038 18.4578 18.2686C17.5914 18.3318 16.5861 18.3744 15.6253 18.4029C14.666 18.4314 13.7589 18.4457 13.0911 18.4529C12.7575 18.4564 12.484 18.4582 12.2943 18.4591C12.1994 18.4596 12.1255 18.4598 12.0754 18.4599L12.0187 18.46L12.0044 18.46L12.001 18.46H12.0001H11.9999H11.9998H11.999L11.9955 18.46L11.9812 18.46L11.9245 18.4599C11.8745 18.4598 11.8005 18.4596 11.7057 18.4591C11.5159 18.4582 11.2425 18.4564 10.9088 18.4529C10.241 18.4457 9.33394 18.4314 8.37466 18.4029C7.41379 18.3744 6.40856 18.3318 5.54208 18.2686C4.65005 18.2035 3.98827 18.1217 3.66098 18.0347C3.35353 17.9502 3.14038 17.8399 2.88154 17.5837C2.63456 17.3393 2.5208 17.1351 2.43477 16.8506C2.13477 15.1693 1.98922 13.4641 1.99994 11.7563H2L1.99995 11.7451C1.99155 10.0444 2.13811 8.34651 2.4378 6.67248C2.5168 6.37063 2.62744 6.15511 2.8791 5.89566C3.13713 5.62965 3.35354 5.51322 3.66503 5.42427C3.99371 5.33765 4.65372 5.25621 5.54208 5.19141C6.40856 5.12821 7.41379 5.08561 8.37466 5.05706C9.33394 5.02855 10.241 5.01427 10.9088 5.00713C11.2425 5.00356 11.5159 5.00178 11.7057 5.00089C11.8005 5.00044 11.8745 5.00022 11.9245 5.00011L11.9812 5.00001L11.9955 5L11.999 5L11.9998 5H11.9999L12 4ZM10.2443 7.61073C9.93476 7.4347 9.55495 7.43655 9.24714 7.61561C8.93933 7.79466 8.74996 8.1239 8.74996 8.48V15.02C8.74996 15.3761 8.93933 15.7053 9.24714 15.8844C9.55495 16.0634 9.93476 16.0653 10.2443 15.8893L15.9943 12.6193C16.3069 12.4415 16.5 12.1096 16.5 11.75C16.5 11.3904 16.3069 11.0585 15.9943 10.8807L10.2443 7.61073ZM13.4771 11.75L10.75 13.3009V10.1991L13.4771 11.75Z" fill="white"/>
</svg>
