<svg width="16" height="16" viewBox="0 0 16 16" fill="none" xmlns="http://www.w3.org/2000/svg">
<path fill-rule="evenodd" clip-rule="evenodd" d="M11.7071 3.04044C11.7848 2.96276 11.8902 2.91912 12 2.91912C12.0544 2.91912 12.1083 2.92983 12.1585 2.95065C12.2088 2.97147 12.2545 3.00198 12.2929 3.04044C12.3314 3.0789 12.3619 3.12457 12.3827 3.17482C12.4035 3.22508 12.4142 3.27894 12.4142 3.33333C12.4142 3.38773 12.4035 3.44159 12.3827 3.49185C12.3619 3.5421 12.3314 3.58776 12.2929 3.62623L4.15544 11.7637L3.37439 11.959L3.56965 11.1779L11.7071 3.04044ZM12 0.919121C11.3597 0.919121 10.7457 1.17347 10.2929 1.62623L1.95958 9.95956C1.83142 10.0877 1.7405 10.2483 1.69655 10.4241L1.02988 13.0908C0.944685 13.4316 1.04453 13.7921 1.29291 14.0404C1.54129 14.2888 1.90178 14.3887 2.24256 14.3035L4.90922 13.6368C5.08506 13.5929 5.24564 13.5019 5.37379 13.3738L13.7071 5.04044C13.9313 4.81626 14.1091 4.55012 14.2305 4.25721C14.3518 3.96431 14.4142 3.65037 14.4142 3.33333C14.4142 3.01629 14.3518 2.70236 14.2305 2.40945C14.1091 2.11655 13.9313 1.85041 13.7071 1.62623C13.4829 1.40205 13.2168 1.22422 12.9239 1.10289C12.631 0.981566 12.3171 0.919121 12 0.919121ZM8.00002 12.3333C7.44774 12.3333 7.00002 12.781 7.00002 13.3333C7.00002 13.8856 7.44774 14.3333 8.00002 14.3333H14C14.5523 14.3333 15 13.8856 15 13.3333C15 12.781 14.5523 12.3333 14 12.3333H8.00002Z" fill="#7F8FA4"/>
</svg>
