<svg width="24" height="24" viewBox="0 0 24 24" fill="none" xmlns="http://www.w3.org/2000/svg">
<path fill-rule="evenodd" clip-rule="evenodd" d="M19.7071 4.29289C19.5196 4.10536 19.2652 4 19 4H5C4.73478 4 4.48043 4.10536 4.29289 4.29289C4.10536 4.48043 4 4.73478 4 5V15C4 15.2652 4.10536 15.5196 4.29289 15.7071C4.48043 15.8946 4.73479 16 5 16H17C17.2652 16 17.5196 16.1054 17.7071 16.2929L20 18.5858V5C20 4.73478 19.8946 4.48043 19.7071 4.29289ZM19 2C19.7956 2 20.5587 2.31607 21.1213 2.87868C21.6839 3.44129 22 4.20435 22 5V21C22 21.4045 21.7564 21.7691 21.3827 21.9239C21.009 22.0787 20.5789 21.9931 20.2929 21.7071L16.5858 18H5C4.20435 18 3.44129 17.6839 2.87868 17.1213C2.31607 16.5587 2 15.7957 2 15V5C2 4.20435 2.31607 3.44129 2.87868 2.87868C3.44129 2.31607 4.20435 2 5 2H19ZM7.005 6.99899C6.45272 6.99899 6.005 7.44671 6.005 7.99899C6.005 8.55128 6.45272 8.99899 7.005 8.99899H15C15.5523 8.99899 16 8.55128 16 7.99899C16 7.44671 15.5523 6.99899 15 6.99899H7.005ZM7 10.999C6.44772 10.999 6 11.4467 6 11.999C6 12.5513 6.44772 12.999 7 12.999H11.005C11.5573 12.999 12.005 12.5513 12.005 11.999C12.005 11.4467 11.5573 10.999 11.005 10.999H7Z" fill="#7F8FA4"/>
</svg>
