<svg width="24" height="24" viewBox="0 0 24 24" fill="none" xmlns="http://www.w3.org/2000/svg">
<path fill-rule="evenodd" clip-rule="evenodd" d="M3 5.9999C3.00006 5.45223 3.45232 5 4 5H20C20.5477 5 20.9999 5.45223 21 5.9999C20.8091 5.99972 20.6161 6.05411 20.4453 6.16795L12 11.7981L3.5547 6.16795C3.38394 6.05411 3.1909 5.99972 3 5.9999ZM3 8.20185V18C3 18.5477 3.45228 19 4 19H20C20.5477 19 21 18.5477 21 18V8.20185L12.5547 13.8321C12.2188 14.056 11.7812 14.056 11.4453 13.8321L3 8.20185ZM4 3C2.34772 3 1 4.34772 1 6V18C1 19.6523 2.34772 21 4 21H20C21.6523 21 23 19.6523 23 18V6C23 4.34772 21.6523 3 20 3H4Z" fill="#7F8FA4"/>
</svg>
