<svg width="24" height="24" viewBox="0 0 24 24" fill="none" xmlns="http://www.w3.org/2000/svg">
<path fill-rule="evenodd" clip-rule="evenodd" d="M15.8377 3.54609C14.9188 3.17101 13.8808 2.99658 12.5582 3.00005C9.33061 3.00853 6.9042 4.53151 5.37354 7.00662C4.54887 8.34014 4.11174 9.87694 4.11113 11.4449L4.11113 11.4471C4.10772 12.7561 4.41355 14.0474 5.00373 15.2158C5.12394 15.4538 5.14413 15.73 5.05981 15.9829L3.58117 20.4189L8.01711 18.9402C8.27006 18.8559 8.5462 18.8761 8.78419 18.9963C9.96244 19.5914 11.0276 19.8885 12.5558 19.8889C13.504 19.8891 14.2181 19.8063 14.8767 19.6188C15.5354 19.4313 16.1864 19.1255 16.9934 18.6265C17.8 18.1276 18.364 17.6816 18.8258 17.1759C19.2877 16.67 19.6811 16.0678 20.1057 15.2192C20.7943 13.843 20.9967 12.9832 21 11.4424C21.0027 10.1194 20.8283 9.08119 20.4533 8.16222C20.0787 7.24419 19.4791 6.38421 18.5475 5.45255C17.6157 4.52077 16.7557 3.92083 15.8377 3.54609ZM16.5935 1.69443C17.8184 2.19445 18.8943 2.97092 19.9617 4.03834C21.0292 5.10588 21.8053 6.18177 22.3051 7.40663C22.8045 8.63054 23.0031 9.9422 23 11.4466C22.9961 13.2947 22.7222 14.4596 21.8943 16.1142C21.417 17.0679 20.9271 17.8408 20.3027 18.5245C19.6782 19.2084 18.9528 19.7663 18.0453 20.3275C17.1382 20.8885 16.3151 21.2888 15.4242 21.5424C14.5332 21.796 13.6225 21.8891 12.5553 21.8889C10.8591 21.8885 9.56888 21.5729 8.26338 20.9663L2.31625 22.9487C1.95692 23.0685 1.56075 22.9749 1.29292 22.7071C1.02509 22.4393 0.931566 22.0431 1.05134 21.6838L3.03462 15.734C2.42308 14.388 2.10743 12.9246 2.11114 11.443C2.11209 9.50408 2.65273 7.60373 3.67254 5.95468C5.54647 2.92449 8.59669 1.01045 12.5529 1.00006C14.0576 0.996105 15.3695 1.19476 16.5935 1.69443Z" fill="#7F8FA4"/>
</svg>
