<svg width="32" height="32" viewBox="0 0 32 32" fill="none" xmlns="http://www.w3.org/2000/svg">
<path fill-rule="evenodd" clip-rule="evenodd" d="M15.9998 1.66667C13.6129 1.66667 11.3237 2.61488 9.63585 4.30271C7.94803 5.99054 6.99981 8.27972 6.99981 10.6667C6.99981 15.186 6.03275 18.018 5.12192 19.6878C4.66512 20.5253 4.21704 21.0806 3.89886 21.4164C3.73951 21.5846 3.61206 21.6985 3.5315 21.7656C3.49121 21.7992 3.46262 21.8211 3.44759 21.8323L3.43555 21.8411C3.4358 21.8409 3.43645 21.8405 3.43748 21.8398L3.44058 21.8377L3.44267 21.8363L3.44385 21.8355C3.44394 21.8354 3.44404 21.8353 3.44629 21.8385L3.99981 23.6667H27.9998L28.5533 21.8385C28.5556 21.8353 28.5557 21.8354 28.5558 21.8355L28.557 21.8363L28.559 21.8377L28.5621 21.8398C28.5632 21.8405 28.5638 21.8409 28.5641 21.8411L28.552 21.8323C28.537 21.8211 28.5084 21.7992 28.4681 21.7656C28.3876 21.6985 28.2601 21.5846 28.1008 21.4164C27.7826 21.0806 27.3345 20.5253 26.8777 19.6878C25.9669 18.018 24.9998 15.186 24.9998 10.6667C24.9998 8.27972 24.0516 5.99054 22.3638 4.30271C20.6759 2.61488 18.3868 1.66667 15.9998 1.66667ZM25.7467 21.6667H6.25291C6.45755 21.3687 6.66828 21.0295 6.87771 20.6455C7.96688 18.6487 8.99981 15.4807 8.99981 10.6667C8.99981 8.81016 9.73731 7.02968 11.0501 5.71692C12.3628 4.40417 14.1433 3.66667 15.9998 3.66667C17.8563 3.66667 19.6368 4.40417 20.9496 5.71692C22.2623 7.02968 22.9998 8.81016 22.9998 10.6667C22.9998 15.4807 24.0327 18.6487 25.1219 20.6455C25.3314 21.0295 25.5421 21.3687 25.7467 21.6667ZM14.5581 27.4982C14.281 27.0205 13.6691 26.8579 13.1914 27.135C12.7136 27.4121 12.551 28.024 12.8281 28.5018C13.1505 29.0574 13.6131 29.5186 14.1697 29.8392C14.7264 30.1599 15.3575 30.3286 15.9998 30.3286C16.6422 30.3286 17.2733 30.1599 17.8299 29.8392C18.3865 29.5186 18.8492 29.0574 19.1715 28.5018C19.4486 28.024 19.286 27.4121 18.8083 27.135C18.3305 26.8579 17.7186 27.0205 17.4415 27.4982C17.295 27.7508 17.0847 27.9604 16.8317 28.1062C16.5787 28.2519 16.2918 28.3286 15.9998 28.3286C15.7078 28.3286 15.421 28.2519 15.168 28.1062C14.9149 27.9604 14.7047 27.7508 14.5581 27.4982Z" fill="white"/>
</svg>
