<svg width="32" height="32" viewBox="0 0 32 32" fill="none" xmlns="http://www.w3.org/2000/svg">
<path fill-rule="evenodd" clip-rule="evenodd" d="M7.01679 4.35007C7.45438 3.91249 8.04787 3.66666 8.66671 3.66666H25.6667V21.7236C25.5624 21.6867 25.4503 21.6667 25.3334 21.6667H8.66671C7.83337 21.6667 7.02478 21.9067 6.33337 22.3485V5.99999C6.33337 5.38115 6.57921 4.78766 7.01679 4.35007ZM6.33337 26C6.33337 26.6188 6.57921 27.2123 7.01679 27.6499C7.45438 28.0875 8.04787 28.3333 8.66671 28.3333H24.391C24.3532 28.2269 24.3334 28.1138 24.3334 27.9987V23.9987C24.3334 23.8845 24.3529 23.7723 24.3901 23.6667H8.66671C8.04787 23.6667 7.45438 23.9125 7.01679 24.3501C6.57921 24.7877 6.33337 25.3812 6.33337 26ZM4.33337 26C4.33337 27.1493 4.78992 28.2515 5.60258 29.0641C6.41524 29.8768 7.51744 30.3333 8.66671 30.3333H26.6667C27.0711 30.3333 27.4357 30.0898 27.5905 29.7162C27.7453 29.3427 27.66 28.9126 27.3742 28.6266L26.3334 27.5848V24.4129L27.3738 23.3725C27.5613 23.1849 27.6667 22.9306 27.6667 22.6654V2.66666C27.6667 2.11437 27.219 1.66666 26.6667 1.66666H8.66671C7.51744 1.66666 6.41524 2.1232 5.60258 2.93586C4.78992 3.74852 4.33337 4.85072 4.33337 5.99999V26Z" fill="white"/>
</svg>
