<svg width="24" height="24" viewBox="0 0 24 24" fill="none" xmlns="http://www.w3.org/2000/svg">
<path fill-rule="evenodd" clip-rule="evenodd" d="M3 12C3 7.02944 7.02944 3 12 3C16.9706 3 21 7.02944 21 12C21 16.9706 16.9706 21 12 21C7.02944 21 3 16.9706 3 12ZM12 1C5.92487 1 1 5.92487 1 12C1 18.0751 5.92487 23 12 23C18.0751 23 23 18.0751 23 12C23 5.92487 18.0751 1 12 1ZM17.1887 8.07623C17.3085 7.71689 17.2149 7.32073 16.9471 7.05289C16.6793 6.78506 16.2831 6.69154 15.9238 6.81132L9.56377 8.93132C9.26517 9.03085 9.03085 9.26517 8.93132 9.56377L6.81132 15.9238C6.69154 16.2831 6.78506 16.6793 7.05289 16.9471C7.32073 17.2149 7.71689 17.3085 8.07623 17.1887L14.4362 15.0687C14.7348 14.9691 14.9691 14.7348 15.0687 14.4362L17.1887 8.07623ZM9.34114 14.6589L10.6706 10.6706L14.6589 9.34114L13.3294 13.3294L9.34114 14.6589Z" fill="#7F8FA4"/>
</svg>
