<svg width="32" height="32" viewBox="0 0 32 32" fill="none" xmlns="http://www.w3.org/2000/svg">
<path d="M6 12C7.1 12 8 12.9 8 14C8 15.1 7.1 16 6 16C4.9 16 4 15.1 4 14C4 12.9 4.9 12 6 12ZM6 10C3.8 10 2 11.8 2 14C2 16.2 3.8 18 6 18C8.2 18 10 16.2 10 14C10 11.8 8.2 10 6 10Z" fill="white"/>
<path d="M16 18C17.1 18 18 18.9 18 20C18 21.1 17.1 22 16 22C14.9 22 14 21.1 14 20C14 18.9 14.9 18 16 18ZM16 16C13.8 16 12 17.8 12 20C12 22.2 13.8 24 16 24C18.2 24 20 22.2 20 20C20 17.8 18.2 16 16 16Z" fill="white"/>
<path d="M26 10C27.1 10 28 10.9 28 12C28 13.1 27.1 14 26 14C24.9 14 24 13.1 24 12C24 10.9 24.9 10 26 10ZM26 8C23.8 8 22 9.8 22 12C22 14.2 23.8 16 26 16C28.2 16 30 14.2 30 12C30 9.8 28.2 8 26 8Z" fill="white"/>
<path d="M5 30V22C5 21.4 5.4 21 6 21C6.6 21 7 21.4 7 22V30C7 30.6 6.6 31 6 31C5.4 31 5 30.6 5 30Z" fill="white"/>
<path d="M15 13V3C15 2.4 15.4 2 16 2C16.6 2 17 2.4 17 3V13C17 13.6 16.6 14 16 14C15.4 14 15 13.6 15 13Z" fill="white"/>
<path d="M25 29V19C25 18.4 25.4 18 26 18C26.6 18 27 18.4 27 19V29C27 29.6 26.6 30 26 30C25.4 30 25 29.6 25 29Z" fill="white"/>
<path d="M25 5V3C25 2.4 25.4 2 26 2C26.6 2 27 2.4 27 3V5C27 5.6 26.6 6 26 6C25.4 6 25 5.6 25 5Z" fill="white"/>
<path d="M5 7V3C5 2.4 5.4 2 6 2C6.6 2 7 2.4 7 3V7C7 7.6 6.6 8 6 8C5.4 8 5 7.6 5 7Z" fill="white"/>
<path d="M15 29V27C15 26.4 15.4 26 16 26C16.6 26 17 26.4 17 27V29C17 29.6 16.6 30 16 30C15.4 30 15 29.6 15 29Z" fill="white"/>
</svg>
