<svg width="32" height="32" viewBox="0 0 32 32" fill="none" xmlns="http://www.w3.org/2000/svg">
<path fill-rule="evenodd" clip-rule="evenodd" d="M6.66667 1.66663C5.69421 1.66663 4.76158 2.05293 4.07394 2.74057C3.38631 3.4282 3 4.36083 3 5.33329V26.6666C3 27.6391 3.38631 28.5717 4.07394 29.2593C4.76157 29.947 5.69421 30.3333 6.66667 30.3333H20C20.5523 30.3333 21 29.8856 21 29.3333C21 28.781 20.5523 28.3333 20 28.3333H6.66667C6.22464 28.3333 5.80072 28.1577 5.48816 27.8451C5.17559 27.5326 5 27.1087 5 26.6666V5.33329C5 4.89127 5.17559 4.46734 5.48816 4.15478C5.80072 3.84222 6.22464 3.66663 6.66667 3.66663H22.6667C23.5871 3.66663 24.3333 4.41282 24.3333 5.33329V5.80432C23.7366 5.9735 23.187 6.2929 22.7406 6.73927C22.053 7.42691 21.6667 8.35954 21.6667 9.332V23.5542C21.6667 23.7355 21.7159 23.9133 21.8092 24.0687L24.4758 28.5132C24.6566 28.8144 24.9821 28.9987 25.3333 28.9987C25.6846 28.9987 26.0101 28.8144 26.1908 28.5132L28.8575 24.0687C28.9507 23.9133 29 23.7355 29 23.5542L29 9.332C29 8.35954 28.6137 7.42691 27.9261 6.73927C27.4797 6.2929 26.9301 5.9735 26.3333 5.80432V5.33329C26.3333 3.30825 24.6917 1.66663 22.6667 1.66663H6.66667ZM25.2929 7.66582C25.3063 7.66636 25.3198 7.66663 25.3333 7.66663C25.3469 7.66663 25.3604 7.66636 25.3738 7.66582C25.8012 7.67619 26.2088 7.85048 26.5118 8.15349C26.8244 8.46605 27 8.88997 27 9.332L27 23.2772L25.3333 26.055L23.6667 23.2772V9.332C23.6667 8.88997 23.8423 8.46605 24.1548 8.15349C24.4578 7.85048 24.8655 7.67619 25.2929 7.66582ZM8.33333 18.6666C8.33333 18.1143 8.78105 17.6666 9.33333 17.6666H17.3333C17.8856 17.6666 18.3333 18.1143 18.3333 18.6666C18.3333 19.2189 17.8856 19.6666 17.3333 19.6666H9.33333C8.78105 19.6666 8.33333 19.2189 8.33333 18.6666ZM9.33333 12.332C8.78105 12.332 8.33333 12.7797 8.33333 13.332C8.33333 13.8843 8.78105 14.332 9.33333 14.332H12C12.5523 14.332 13 13.8843 13 13.332C13 12.7797 12.5523 12.332 12 12.332H9.33333ZM8.33333 7.99866C8.33333 7.44638 8.78105 6.99866 9.33333 6.99866H17.3333C17.8856 6.99866 18.3333 7.44638 18.3333 7.99866C18.3333 8.55095 17.8856 8.99866 17.3333 8.99866H9.33333C8.78105 8.99866 8.33333 8.55095 8.33333 7.99866ZM9.33333 23C8.78105 23 8.33333 23.4477 8.33333 24C8.33333 24.5523 8.78105 25 9.33333 25H14.6667C15.219 25 15.6667 24.5523 15.6667 24C15.6667 23.4477 15.219 23 14.6667 23H9.33333Z" fill="#3A9EFF"/>
</svg>
