<svg width="32" height="32" viewBox="0 0 32 32" fill="none" xmlns="http://www.w3.org/2000/svg">
<path fill-rule="evenodd" clip-rule="evenodd" d="M13.5497 3.66533C13.2805 3.66533 13 3.90246 13 4.27301C13 4.51677 13.1053 4.73691 13.6319 4.98719C14.1373 5.22736 14.7758 5.36522 15.4481 5.51037L15.6587 5.55599C15.8755 5.60327 16.1063 5.60175 16.3303 5.55068C16.4338 5.5271 16.5364 5.50417 16.638 5.48147C17.2819 5.33764 17.8839 5.20316 18.3703 4.97401C18.9007 4.72411 19 4.50806 19 4.27301C19 3.90246 18.7196 3.66533 18.4503 3.66533H13.5497ZM11 4.27301C11 2.86776 12.1073 1.66533 13.5497 1.66533H18.4503C19.8928 1.66533 21 2.86776 21 4.27301C21 5.63233 20.0691 6.38451 19.2226 6.78329C18.8681 6.95029 18.4773 7.08073 18.097 7.18662C20.1362 7.55671 21.9907 8.45683 23.5126 9.73907L26.0429 7.2151L24.8707 6.03748C24.4811 5.64605 24.4825 5.01289 24.874 4.62327C25.2654 4.23364 25.8985 4.2351 26.2882 4.62652L28.1651 6.51213L30.0421 8.39775C30.4317 8.78917 30.4303 9.42234 30.0389 9.81196C29.6474 10.2016 29.0143 10.2001 28.6246 9.80871L27.4539 8.63256L24.9268 11.1533C26.6365 13.183 27.6667 15.8038 27.6667 18.6653C27.6667 25.1087 22.4434 30.332 16 30.332C9.55672 30.332 4.33337 25.1087 4.33337 18.6653C4.33337 12.9483 8.44549 8.19177 13.8733 7.19205C13.5014 7.08763 13.1208 6.95866 12.7735 6.79359C11.9241 6.38996 11 5.63128 11 4.27301ZM6.33337 18.6653C6.33337 13.3266 10.6613 8.99867 16 8.99867C21.3388 8.99867 25.6667 13.3266 25.6667 18.6653C25.6667 24.0041 21.3388 28.332 16 28.332C10.6613 28.332 6.33337 24.0041 6.33337 18.6653ZM16 14.332C18.3933 14.332 20.3334 16.2721 20.3334 18.6653C20.3334 19.8495 19.8597 20.9211 19.0892 21.7043C18.7018 22.098 18.707 22.7311 19.1006 23.1184C19.4943 23.5058 20.1275 23.5006 20.5148 23.1069C21.6385 21.9649 22.3334 20.3953 22.3334 18.6653C22.3334 15.1675 19.4978 12.332 16 12.332V14.332Z" fill="white"/>
</svg>
